<svg xmlns="http://www.w3.org/2000/svg" xml:space="preserve" id="Layer_1" width="320" height="480" viewBox="0 0 320 480"><defs id="defs1"><style id="style1">.st0{fill:none}.st1{fill:#918833}.st2{fill:#cb4}.st3{fill:#208a44}.st4{fill:#15562c}.st5{fill:#268842}</style></defs><g id="g61" transform="translate(-12.327 -6.113)scale(.63426)"><circle id="circle1" cx="-253.143" cy="512.922" r="37.93" class="st4" style="stroke-width:.873963" transform="rotate(-67.5)"/><path id="path1" d="M497.526 391.905H481.56c-.69 0-1.25.56-1.25 1.25v38.393c0 .9-1.101 1.329-1.713.664-.2-.218-.376-.419-.55-.629-10.278-12.576-20.53-25.17-30.843-37.72-.716-.874-1.8-2.01-2.752-2.019-4.09-.061-8.172-.113-12.35-.096-.681 0-1.24.56-1.24 1.241v73.518c0 .69.559 1.25 1.25 1.25h16.001c.69 0 1.25-.56 1.25-1.25v-37.782c0-.935 1.171-1.354 1.766-.629l31.043 37.66c.725.882 1.765 2.08 2.709 2.105 4.5.123 8.399.114 12.664.105.69 0 1.24-.559 1.24-1.24V393.18c0-.69-.559-1.25-1.249-1.25z" class="st5" style="stroke-width:.873963"/><path id="path2" d="M71.714 392.596c-13.057-1.198-26-.603-39.145-.752-.402 0-.795.149-1.075.437a1.48 1.48 0 0 0-.445 1.066v73.343c0 .69.559 1.25 1.25 1.25 11.282 0 22.233.052 33.184-.044a38 38 0 0 0 6.065-.524c19.638-3.373 30.484-16.055 31.454-36.514.935-19.84-12.087-36.506-31.288-38.262m10.732 42.273c-2.193 11.554-8.967 17.008-20.809 17.078-3.111.017-6.214 0-9.474 0-.69 0-1.267-.56-1.267-1.25v-41.365c0-.682.55-1.232 1.233-1.24 5.313-.07 10.47-.28 15.495.357 8.346 1.067 14.578 8.967 15.05 18.144.14 2.744.28 5.585-.228 8.259z" class="st5" style="stroke-width:.873963"/><path id="path3" d="M173.54 452.654h-31.638a1.25 1.25 0 0 1-1.25-1.25v-13.476c0-.69.56-1.25 1.25-1.25h28.264c.69 0 1.25-.559 1.25-1.25v-12.75c0-.69-.56-1.25-1.25-1.25h-28.247c-.69 0-1.25-.56-1.25-1.25v-11.597c0-.69.56-1.25 1.25-1.25h30.58c.69 0 1.25-.56 1.25-1.25v-12.873c0-.69-.56-1.25-1.25-1.25h-50.532c-.69 0-1.25.56-1.25 1.25v73.22c0 .69.56 1.25 1.25 1.25h51.572c.69 0 1.25-.56 1.25-1.25v-12.541c0-.69-.56-1.25-1.25-1.25z" class="st5" style="stroke-width:.873963"/><path id="path4" d="M328.38 455.407c-1.469-2.805-4.554-7.49-4.554-7.49s-.76-1.197-2.517-.305a.1.1 0 0 0-.035.017c-7.061 3.566-14.376 5.253-22.32 3.61-9.527-1.967-16.257-9.719-17.026-19.918-.751-9.954 5.017-19.044 14.211-22.033 8.748-2.849 17.051-1.354 24.952 3.077.009 0 .017.009.026.017 1.416.796 1.993-.323 1.993-.323l5.34-10.173c.777-1.74-.997-2.902-2.614-4.073-9.019-6.467-23.02-7.105-32.843-5.069-31.454 6.494-37.502 40.229-23.685 59.08 8.801 12.008 21.273 16.43 35.754 16.116 6.336-.14 14.097-.97 22.854-6.895.481-.263 1.014-.726 1.416-1.233.542-.69.62-1.643.219-2.42-.402-.77-.944-1.574-1.154-1.984z" class="st5" style="stroke-width:.873963"/><path id="path5" d="M253.594 391.905h-56.606c-.69 0-1.25.56-1.25 1.25v73.36c0 .691.56 1.25 1.25 1.25h17.278c.69 0 1.25-.559 1.25-1.25V442.08c0-.69.56-1.25 1.25-1.25h25.764c.69 0 1.25-.56 1.25-1.25v-13.678c0-.69-.56-1.25-1.25-1.25h-25.686a1.25 1.25 0 0 1-1.25-1.25v-14.105c0-.69.56-1.25 1.25-1.25H245.8c.69 0 .847-.594 1.25-1.25l7.393-13.153c.402-.716-.026-1.651-.848-1.73z" class="st5" style="stroke-width:.873963"/><path id="path6" d="M510.767 464.182c0-.839-.507-1.224-1.59-1.224h-1.12a.42.42 0 0 0-.419.42v3.304c0 .166.14.305.306.305h.315a.31.31 0 0 0 .305-.305v-1.224a.12.12 0 0 1 .123-.122h.148c.053 0 .105.026.131.078l.813 1.425a.3.3 0 0 0 .262.157h.271c.114 0 .21-.06.263-.157a.32.32 0 0 0 0-.306l-.673-1.101s-.018-.079 0-.096a.12.12 0 0 1 .087-.07c.524-.131.804-.498.804-1.066zm-1.6.393h-.375a.23.23 0 0 1-.228-.227v-.402c0-.131.105-.227.228-.227h.34c.638 0 .717.227.717.402 0 .384-.227.454-.682.454" class="st5" style="stroke-width:.873963"/><path id="path7" d="M509.071 461.683a3.28 3.28 0 0 0-3.286 3.286 3.28 3.28 0 0 0 3.286 3.286 3.28 3.28 0 0 0 3.286-3.286 3.28 3.28 0 0 0-3.286-3.286m.018 5.916c-1.468 0-2.613-1.162-2.613-2.64a2.58 2.58 0 0 1 2.613-2.612c1.46 0 2.587 1.145 2.587 2.613s-1.136 2.64-2.587 2.64" class="st5" style="stroke-width:.873963"/><path id="path8" d="M376.954 391.6c-21.062 0-38.14 17.077-38.14 38.14s17.078 38.139 38.14 38.139 38.14-17.077 38.14-38.14-17.077-38.14-38.14-38.14m-2.613 51.563-5.558 3.243-3.837 2.298a6 6 0 0 0-.804.56l-.061.052a5.45 5.45 0 0 0-1.704 2.919l-.035.166c-.158.717-.298 1.39-.533 1.984a3 3 0 0 1-1.836 1.765c-1.206.402-2.578.219-3.548-.603a2 2 0 0 1-.192-.175 3.3 3.3 0 0 1-.542-.699l-.018-.017a3 3 0 0 1-.297-.673c-.218-.813-.166-1.346-.026-1.818.035-.14.166-.507.192-.682 0 0 .01-.07.01-.105.017-.21 0-.445-.123-.664-.236-.41-.979-.55-.979-.55-.62-.158-1.713-.612-2.299-1.626a3 3 0 0 1-.323-.787c-.035-.122-.052-.253-.078-.375v-.044a4 4 0 0 1-.035-.35c-.027-1.127.515-2.22 1.398-2.954.655-.55 1.52-.76 2.368-.629.63.105 1.285.315 1.984.542l.166.052a5.52 5.52 0 0 0 3.382 0l.08-.026.882-.454.952-.55 4.03-2.326 1.966-1.17c.358-.21.795-.21 1.154 0l4.273 2.473a.697.697 0 0 1 0 1.206zm29.61-25.921a3.2 3.2 0 0 1 .813.926c.585 1.014.437 2.185.262 2.805 0 0-.245.717-.009 1.119.122.21.323.35.507.437.035.017.061.026.096.044.166.06.55.13.69.174.481.123.97.341 1.565.936.157.174.306.375.428.594.149.245.254.516.323.786.027.097.044.201.07.298.254 1.45-.489 2.936-1.748 3.74a2.52 2.52 0 0 1-1.52.385c-.77-.053-1.556-.306-2.421-.586l-.166-.052a5.52 5.52 0 0 0-3.382.017l-.08.026a5 5 0 0 0-.89.42l-9.422 5.349-3.985 2.307a.97.97 0 0 1-.927.026l-2.36-1.171a1.07 1.07 0 0 0-1.048.017l-.428.254a.475.475 0 0 0 0 .821l2.202 1.25 9.413 5.349a6 6 0 0 0 .891.42l.079.026a5.46 5.46 0 0 0 3.382.017l.166-.052c.865-.28 1.652-.533 2.421-.586a2.5 2.5 0 0 1 1.512.385c1.259.804 2.001 2.29 1.748 3.74a3 3 0 0 1-.07.297c-.07.271-.184.542-.323.787-.131.218-.271.42-.429.594-.594.595-1.075.813-1.564.935-.14.044-.524.114-.682.175-.035.01-.06.026-.096.044a1.1 1.1 0 0 0-.507.437c-.236.41.01 1.119.01 1.119.174.62.323 1.791-.263 2.805a3 3 0 0 1-.524.673c-.096.087-.184.175-.289.253-.009 0-.026.018-.035.027-.096.07-.183.14-.288.2-1.154.7-2.674.673-3.89-.034a2.23 2.23 0 0 1-.83-.857c-.401-.734-.585-1.608-.786-2.57l-.035-.165a5.46 5.46 0 0 0-1.696-2.928l-.052-.053-.839-.541-.105-.062-17.89-10.321-14.612-8.434-.953-.55-.883-.455-.078-.026a5.46 5.46 0 0 0-3.383 0l-.166.052c-.935.306-1.783.586-2.613.603a2.27 2.27 0 0 1-1.162-.288c-1.215-.69-2.002-1.993-1.975-3.347 0-.114.017-.236.034-.35v-.044c.018-.122.044-.253.08-.376q.101-.42.323-.786c.585-1.014 1.669-1.468 2.298-1.626 0 0 .743-.14.979-.55.122-.21.148-.455.122-.664 0-.035 0-.07-.009-.105-.026-.175-.157-.542-.192-.682-.14-.48-.192-1.014.026-1.818.079-.227.175-.446.297-.673l.026-.044c.15-.235.315-.463.507-.655.07-.07.14-.131.21-.192 1.171-.988 2.902-1.049 4.256-.289.359.201.665.507.866.874.402.734.594 1.6.795 2.561l.035.166a5.56 5.56 0 0 0 1.704 2.92l.061.052c.236.2.498.384.804.559l3.837 2.298.166.096a17.6 17.6 0 0 1-3.164-10.094c0-11.108 10.234-19.821 21.788-17.226 6.31 1.416 11.37 6.275 12.987 12.542 1.407 5.47.263 10.68-2.5 14.691l3.907-2.255.097-.061.839-.542.06-.052a5.5 5.5 0 0 0 1.696-2.928l.035-.166c.201-.961.385-1.835.787-2.57a2.17 2.17 0 0 1 .83-.856c1.206-.708 2.727-.734 3.89-.035.095.061.191.131.288.201.009 0 .017.018.035.026z" class="st5" style="stroke-width:.873963"/><ellipse id="ellipse8" cx="370.426" cy="411.246" class="st5" rx="3.583" ry="3.618" style="stroke-width:.873963"/><ellipse id="ellipse9" cx="383.413" cy="411.246" class="st5" rx="3.583" ry="3.618" style="stroke-width:.873963"/><path id="path9" d="M389.994 416.927a1.4 1.4 0 0 0-.315-.079 4 4 0 0 0-.62-.044c-.927 0-1.381.245-1.381.805 0 .087.017.166.044.253a.6.6 0 0 0 .078.166c.114.192.201.402.201.62 0 .202-.026.446-.105.918l-.113.455a11.3 11.3 0 0 1-2.56 4.763c-.018.017-.027.035-.045.052-.052.053-.096.105-.148.157-.053.062-.114.114-.166.175-.035.035-.07.07-.105.096-.079.079-.157.149-.236.228l-.052.052a11.1 11.1 0 0 1-7.517 2.928c-5.104 0-9.552-3.47-10.837-8.443l-.113-.454c-.079-.472-.114-.717-.105-.918 0-.218.087-.437.2-.62a1 1 0 0 0 .088-.184.8.8 0 0 0 .044-.236c0-.56-.455-.804-1.381-.804a3.5 3.5 0 0 0-.56.035 1.6 1.6 0 0 0-.419.114c-.262.113-.384.306-.402.585a.9.9 0 0 0 .149.533c.105.166.192.341.244.525.044.13.08.262.097.393.183 1.346.576 2.64 1.144 3.828.018.044.044.079.062.122.009.027.026.044.035.07q.09.184.183.367c.026.053.061.114.088.166s.06.105.087.158c.061.105.122.21.184.306l.052.078c.07.105.131.21.2.324 0 0 .01.017.018.026 2.36 3.583 6.415 5.96 10.96 5.96 5.191 0 9.753-3.111 11.868-7.56q.142-.299.271-.611c.026-.07.061-.149.088-.219.009-.026.026-.061.035-.087.358-.927.611-1.905.751-2.928a2.3 2.3 0 0 1 .096-.393 3 3 0 0 1 .245-.525.95.95 0 0 0 .149-.533c-.018-.288-.158-.49-.455-.603z" class="st5" style="stroke-width:.873963"/><circle id="circle9" cx="-253.143" cy="512.922" r="37.93" class="st4" style="stroke-width:.873963" transform="rotate(-67.5)"/><path id="path10" d="M497.526 391.905H481.56c-.69 0-1.25.56-1.25 1.25v38.393c0 .9-1.101 1.329-1.713.664-.2-.218-.376-.419-.55-.629-10.278-12.576-20.53-25.17-30.843-37.72-.716-.874-1.8-2.01-2.752-2.019-4.09-.061-8.172-.113-12.35-.096-.681 0-1.24.56-1.24 1.241v73.518c0 .69.559 1.25 1.25 1.25h16.001c.69 0 1.25-.56 1.25-1.25v-37.782c0-.935 1.171-1.354 1.766-.629l31.043 37.66c.725.882 1.765 2.08 2.709 2.105 4.5.123 8.399.114 12.664.105.69 0 1.24-.559 1.24-1.24V393.18c0-.69-.559-1.25-1.249-1.25z" class="st5" style="stroke-width:.873963"/><path id="path11" d="M71.714 392.596c-13.057-1.198-26-.603-39.145-.752-.402 0-.795.149-1.075.437a1.48 1.48 0 0 0-.445 1.066v73.343c0 .69.559 1.25 1.25 1.25 11.282 0 22.233.052 33.184-.044a38 38 0 0 0 6.065-.524c19.638-3.373 30.484-16.055 31.454-36.514.935-19.84-12.087-36.506-31.288-38.262m10.732 42.273c-2.193 11.554-8.967 17.008-20.809 17.078-3.111.017-6.214 0-9.474 0-.69 0-1.267-.56-1.267-1.25v-41.365c0-.682.55-1.232 1.233-1.24 5.313-.07 10.47-.28 15.495.357 8.346 1.067 14.578 8.967 15.05 18.144.14 2.744.28 5.585-.228 8.259z" class="st5" style="stroke-width:.873963"/><path id="path12" d="M173.54 452.654h-31.638a1.25 1.25 0 0 1-1.25-1.25v-13.476c0-.69.56-1.25 1.25-1.25h28.264c.69 0 1.25-.559 1.25-1.25v-12.75c0-.69-.56-1.25-1.25-1.25h-28.247c-.69 0-1.25-.56-1.25-1.25v-11.597c0-.69.56-1.25 1.25-1.25h30.58c.69 0 1.25-.56 1.25-1.25v-12.873c0-.69-.56-1.25-1.25-1.25h-50.532c-.69 0-1.25.56-1.25 1.25v73.22c0 .69.56 1.25 1.25 1.25h51.572c.69 0 1.25-.56 1.25-1.25v-12.541c0-.69-.56-1.25-1.25-1.25z" class="st5" style="stroke-width:.873963"/><path id="path13" d="M328.38 455.407c-1.469-2.805-4.554-7.49-4.554-7.49s-.76-1.197-2.517-.305a.1.1 0 0 0-.035.017c-7.061 3.566-14.376 5.253-22.32 3.61-9.527-1.967-16.257-9.719-17.026-19.918-.751-9.954 5.017-19.044 14.211-22.033 8.748-2.849 17.051-1.354 24.952 3.077.009 0 .017.009.026.017 1.416.796 1.993-.323 1.993-.323l5.34-10.173c.777-1.74-.997-2.902-2.614-4.073-9.019-6.467-23.02-7.105-32.843-5.069-31.454 6.494-37.502 40.229-23.685 59.08 8.801 12.008 21.273 16.43 35.754 16.116 6.336-.14 14.097-.97 22.854-6.895.481-.263 1.014-.726 1.416-1.233.542-.69.62-1.643.219-2.42-.402-.77-.944-1.574-1.154-1.984z" class="st5" style="stroke-width:.873963"/><path id="path14" d="M253.594 391.905h-56.606c-.69 0-1.25.56-1.25 1.25v73.36c0 .691.56 1.25 1.25 1.25h17.278c.69 0 1.25-.559 1.25-1.25V442.08c0-.69.56-1.25 1.25-1.25h25.764c.69 0 1.25-.56 1.25-1.25v-13.678c0-.69-.56-1.25-1.25-1.25h-25.686a1.25 1.25 0 0 1-1.25-1.25v-14.105c0-.69.56-1.25 1.25-1.25H245.8c.69 0 .847-.594 1.25-1.25l7.393-13.153c.402-.716-.026-1.651-.848-1.73z" class="st5" style="stroke-width:.873963"/><path id="path15" d="M510.767 464.182c0-.839-.507-1.224-1.59-1.224h-1.12a.42.42 0 0 0-.419.42v3.304c0 .166.14.305.306.305h.315a.31.31 0 0 0 .305-.305v-1.224a.12.12 0 0 1 .123-.122h.148c.053 0 .105.026.131.078l.813 1.425a.3.3 0 0 0 .262.157h.271c.114 0 .21-.06.263-.157a.32.32 0 0 0 0-.306l-.673-1.101s-.018-.079 0-.096a.12.12 0 0 1 .087-.07c.524-.131.804-.498.804-1.066zm-1.6.393h-.375a.23.23 0 0 1-.228-.227v-.402c0-.131.105-.227.228-.227h.34c.638 0 .717.227.717.402 0 .384-.227.454-.682.454" class="st5" style="stroke-width:.873963"/><path id="path16" d="M509.071 461.683a3.28 3.28 0 0 0-3.286 3.286 3.28 3.28 0 0 0 3.286 3.286 3.28 3.28 0 0 0 3.286-3.286 3.28 3.28 0 0 0-3.286-3.286m.018 5.916c-1.468 0-2.613-1.162-2.613-2.64a2.58 2.58 0 0 1 2.613-2.612c1.46 0 2.587 1.145 2.587 2.613s-1.136 2.64-2.587 2.64" class="st5" style="stroke-width:.873963"/><path id="path17" d="M376.954 391.6c-21.062 0-38.14 17.077-38.14 38.14s17.078 38.139 38.14 38.139 38.14-17.077 38.14-38.14-17.077-38.14-38.14-38.14m-2.613 51.563-5.558 3.243-3.837 2.298a6 6 0 0 0-.804.56l-.061.052a5.45 5.45 0 0 0-1.704 2.919l-.035.166c-.158.717-.298 1.39-.533 1.984a3 3 0 0 1-1.836 1.765c-1.206.402-2.578.219-3.548-.603a2 2 0 0 1-.192-.175 3.3 3.3 0 0 1-.542-.699l-.018-.017a3 3 0 0 1-.297-.673c-.218-.813-.166-1.346-.026-1.818.035-.14.166-.507.192-.682 0 0 .01-.07.01-.105.017-.21 0-.445-.123-.664-.236-.41-.979-.55-.979-.55-.62-.158-1.713-.612-2.299-1.626a3 3 0 0 1-.323-.787c-.035-.122-.052-.253-.078-.375v-.044a4 4 0 0 1-.035-.35c-.027-1.127.515-2.22 1.398-2.954.655-.55 1.52-.76 2.368-.629.63.105 1.285.315 1.984.542l.166.052a5.52 5.52 0 0 0 3.382 0l.08-.026.882-.454.952-.55 4.03-2.326 1.966-1.17c.358-.21.795-.21 1.154 0l4.273 2.473a.697.697 0 0 1 0 1.206zm29.61-25.921a3.2 3.2 0 0 1 .813.926c.585 1.014.437 2.185.262 2.805 0 0-.245.717-.009 1.119.122.21.323.35.507.437.035.017.061.026.096.044.166.06.55.13.69.174.481.123.97.341 1.565.936.157.174.306.375.428.594.149.245.254.516.323.786.027.097.044.201.07.298.254 1.45-.489 2.936-1.748 3.74a2.52 2.52 0 0 1-1.52.385c-.77-.053-1.556-.306-2.421-.586l-.166-.052a5.52 5.52 0 0 0-3.382.017l-.08.026a5 5 0 0 0-.89.42l-9.422 5.349-3.985 2.307a.97.97 0 0 1-.927.026l-2.36-1.171a1.07 1.07 0 0 0-1.048.017l-.428.254a.475.475 0 0 0 0 .821l2.202 1.25 9.413 5.349a6 6 0 0 0 .891.42l.079.026a5.46 5.46 0 0 0 3.382.017l.166-.052c.865-.28 1.652-.533 2.421-.586a2.5 2.5 0 0 1 1.512.385c1.259.804 2.001 2.29 1.748 3.74a3 3 0 0 1-.07.297c-.07.271-.184.542-.323.787-.131.218-.271.42-.429.594-.594.595-1.075.813-1.564.935-.14.044-.524.114-.682.175-.035.01-.06.026-.096.044a1.1 1.1 0 0 0-.507.437c-.236.41.01 1.119.01 1.119.174.62.323 1.791-.263 2.805a3 3 0 0 1-.524.673c-.096.087-.184.175-.289.253-.009 0-.026.018-.035.027-.096.07-.183.14-.288.2-1.154.7-2.674.673-3.89-.034a2.23 2.23 0 0 1-.83-.857c-.401-.734-.585-1.608-.786-2.57l-.035-.165a5.46 5.46 0 0 0-1.696-2.928l-.052-.053-.839-.541-.105-.062-17.89-10.321-14.612-8.434-.953-.55-.883-.455-.078-.026a5.46 5.46 0 0 0-3.383 0l-.166.052c-.935.306-1.783.586-2.613.603a2.27 2.27 0 0 1-1.162-.288c-1.215-.69-2.002-1.993-1.975-3.347 0-.114.017-.236.034-.35v-.044c.018-.122.044-.253.08-.376q.101-.42.323-.786c.585-1.014 1.669-1.468 2.298-1.626 0 0 .743-.14.979-.55.122-.21.148-.455.122-.664 0-.035 0-.07-.009-.105-.026-.175-.157-.542-.192-.682-.14-.48-.192-1.014.026-1.818.079-.227.175-.446.297-.673l.026-.044c.15-.235.315-.463.507-.655.07-.07.14-.131.21-.192 1.171-.988 2.902-1.049 4.256-.289.359.201.665.507.866.874.402.734.594 1.6.795 2.561l.035.166a5.56 5.56 0 0 0 1.704 2.92l.061.052c.236.2.498.384.804.559l3.837 2.298.166.096a17.6 17.6 0 0 1-3.164-10.094c0-11.108 10.234-19.821 21.788-17.226 6.31 1.416 11.37 6.275 12.987 12.542 1.407 5.47.263 10.68-2.5 14.691l3.907-2.255.097-.061.839-.542.06-.052a5.5 5.5 0 0 0 1.696-2.928l.035-.166c.201-.961.385-1.835.787-2.57a2.17 2.17 0 0 1 .83-.856c1.206-.708 2.727-.734 3.89-.035.095.061.191.131.288.201.009 0 .017.018.035.026z" class="st5" style="stroke-width:.873963"/><ellipse id="ellipse17" cx="370.426" cy="411.246" class="st5" rx="3.583" ry="3.618" style="stroke-width:.873963"/><ellipse id="ellipse18" cx="383.413" cy="411.246" class="st5" rx="3.583" ry="3.618" style="stroke-width:.873963"/><path id="path18" d="M389.994 416.927a1.4 1.4 0 0 0-.315-.079 4 4 0 0 0-.62-.044c-.927 0-1.381.245-1.381.805 0 .087.017.166.044.253a.6.6 0 0 0 .078.166c.114.192.201.402.201.62 0 .202-.026.446-.105.918l-.113.455a11.3 11.3 0 0 1-2.56 4.763c-.018.017-.027.035-.045.052-.052.053-.096.105-.148.157-.053.062-.114.114-.166.175-.035.035-.07.07-.105.096-.079.079-.157.149-.236.228l-.052.052a11.1 11.1 0 0 1-7.517 2.928c-5.104 0-9.552-3.47-10.837-8.443l-.113-.454c-.079-.472-.114-.717-.105-.918 0-.218.087-.437.2-.62a1 1 0 0 0 .088-.184.8.8 0 0 0 .044-.236c0-.56-.455-.804-1.381-.804a3.5 3.5 0 0 0-.56.035 1.6 1.6 0 0 0-.419.114c-.262.113-.384.306-.402.585a.9.9 0 0 0 .149.533c.105.166.192.341.244.525.044.13.08.262.097.393.183 1.346.576 2.64 1.144 3.828.018.044.044.079.062.122.009.027.026.044.035.07q.09.184.183.367c.026.053.061.114.088.166s.06.105.087.158c.061.105.122.21.184.306l.052.078c.07.105.131.21.2.324 0 0 .01.017.018.026 2.36 3.583 6.415 5.96 10.96 5.96 5.191 0 9.753-3.111 11.868-7.56q.142-.299.271-.611c.026-.07.061-.149.088-.219.009-.026.026-.061.035-.087.358-.927.611-1.905.751-2.928a2.3 2.3 0 0 1 .096-.393 3 3 0 0 1 .245-.525.95.95 0 0 0 .149-.533c-.018-.288-.158-.49-.455-.603z" class="st5" style="stroke-width:.873963"/><g id="g59" transform="translate(3.912 8.603)scale(.87396)"><path id="path20" d="M92.64 362.25c-.09-.02-.17-.06-.26-.09.09.04.17.07.26.09" class="st0"/><path id="path21" d="M100.7 363.5c-.67-.02-1.35-.06-2.02-.13.67.06 1.35.11 2.02.13" class="st0"/><path id="path23" d="M89.82 298c-13.69 4.26-22.8 19.35-22.01 33.29.81 14.15 10.42 25.99 23.72 30.41-8.12-20.07-8.91-43.16-1.72-63.7z" class="st0"/><path id="path24" d="M326.85 209.81c-14.43-8.95-26.76-20.11-36.24-34.29-.93.89-1.46 2.06-2.2 3.08-9 12.33-20.12 22.36-32.97 30.53-3.96 2.52-8.11 4.7-12.19 7.01-6.64 1.81-13.35 3.23-20.15 4.11 6.8-.88 13.51-2.3 20.15-4.11 19.65 7.04 37.19 18.51 47.24 37.36.06-.07.14-.13.19-.21 6.47-12.14 15.96-21.35 27.58-28.5 6.15-3.78 12.76-6.54 19.61-8.76 7.73-1.38 15.21-3.11 22.86-4.19-7.66 1.08-15.13 2.81-22.86 4.19-3.77-1.9-7.43-4.01-11.02-6.24z" class="st0"/><path id="path25" d="M125.76 265.81c-7.33 1.72-14.11 4.45-20.14 9.34a45 45 0 0 0-3.92 3.58c1.23-1.26 2.53-2.45 3.92-3.58 6.04-4.89 12.81-7.62 20.14-9.34" class="st0"/><path id="path26" d="M97.21 284.08c1.37-1.89 2.86-3.68 4.49-5.36a48 48 0 0 0-4.49 5.36" class="st0"/><path id="path27" d="M91.16 294.73c.47-1.08.98-2.14 1.51-3.18a66 66 0 0 0-1.51 3.18" class="st0"/><path id="path31" d="M223.1 220.26c-1.24.16-2.48.3-3.72.43 1.24-.12 2.48-.27 3.72-.43" class="st0"/><path id="path32" d="M372.55 210.86c-.41 0-.81.01-1.21.03z" class="st0"/><path id="path33" d="M303.88 133.51c.01.92 0 1.84-.02 2.77.03-.93.03-1.85.02-2.77" class="st0"/><path id="path35" d="M303.86 136.28c-.07 2.32-.26 4.67-.57 7.04-.18 1.37-.41 2.73-.68 4.07.27-1.34.49-2.7.68-4.07.32-2.37.51-4.72.57-7.04" class="st0"/><path id="path36" d="M302.76 122.67c-.17-.89-.37-1.77-.58-2.64.21.88.4 1.76.58 2.64" class="st0"/><path id="path37" d="M161.06 374.05c3.07 1.97 7.23 2.84 11 3.59-3.77-.74-7.94-1.61-11-3.59 6.42.99 12.17 1.95 18.69.87 4.97-.83 9.83-2.37 14.35-4.59 9.25-4.54 17.74-12.15 22.8-21.17h-39.69c-1.97 0-6.31-.86-7.66.77-1.34 1.63-2.06 5.09-3 7.09-2.59 5.47-5.41 10.66-9.08 15.5-.22.22-.47.42-.69.65.22-.22.46-.43.68-.65 1.2.51 2.4 1.03 3.59 1.54z" class="st0"/><g id="g40"><path id="path39" d="M289.96 326.77c-1.35-4.04-2.42-8.15-3.76-12.24h-.06l-114.61-.17c-.89 0-1.08-.41-1.25-1.11-.74-3-1.49-5.99-2.82-8.8-7.44 3.06-14.07 6.95-19.55 12.03a47.6 47.6 0 0 0-10.25 13.58c-.89 1.76-1.7 3.62-2.41 5.57-.03.09-.07.17-.11.26-.11.26-.25.5-.37.76-1.88 7.32-5.19 13.23-9.96 17.68-.56.52-1.14 1.03-1.74 1.51q-2.25 1.815-4.89 3.24c-.7.38-1.42.74-2.17 1.08s-1.51.66-2.29.96-1.59.58-2.41.83c-.82.26-1.67.49-2.53.71-.34.08-.67.16-1.01.23-.67.14-1.34.26-2.02.35-1.68.23-3.37.31-5.06.26-.67-.02-1.35-.06-2.02-.13-.34-.03-.67-.07-1.01-.11-1.01-.13-2.02-.3-3.03-.52-.34-.07-.67-.15-1.01-.23s-.67-.17-1-.26c-.09-.02-.17-.06-.26-.09-.32-.13-.63-.33-.84-.46-13.31-4.42-22.91-16.26-23.72-30.41-.8-13.94 8.32-29.03 22.01-33.29.42-1.1.87-2.19 1.34-3.27s.98-2.14 1.51-3.18c1.33-2.61 2.83-5.11 4.54-7.47 1.37-1.89 2.86-3.68 4.49-5.36 1.23-1.26 2.53-2.45 3.92-3.58 6.04-4.89 12.81-7.62 20.14-9.34a82 82 0 0 1 4.14-.86c-8.99-5.54-22.52-6.6-32.77-5.92-10.23.67-20.37 3.43-29.37 8.37-31.08 17.03-44.6 54.99-32.06 87.93 13.73 36.08 56.15 53.65 91.74 39.86.46-.6 1.21-.68 1.84-.95 10.8-4.73 19.9-11.68 27.31-20.84.07-.08.13-.16.21-.23.22-.22.46-.43.69-.65 3.67-4.84 6.49-10.02 9.08-15.5.95-2 1.67-5.46 3-7.09 1.34-1.63 5.69-.77 7.66-.77h124.4c-3.29-5.65-6.95-10.89-9.58-16.92-.79-1.8-1.46-3.63-2.08-5.47z" class="st2"/><path id="path40" d="M566.08 323.01c-.53-6.47-5.17-7.95-10.7-8.74-6.87-.99-7.18-7.06-7.2-12.73-.02-6.52-4.06-9.62-10.31-9.56-7.8.09-15.59.17-23.38.03-5.88-.1-11.74 1.28-12.06 8.29-.25 5.33.82 14.41-7.35 13.98l-51.52.03c-26.39.45-52.81-.59-79.2.07 2.86 12.59 7.92 24.08 16.84 33.64.38.41.84.74 1.26 1.11l165.54.02c5.77 0 13.62 1.44 16.98-4.58 1.7-3.03 1.12-6.91 1.12-10.24 0-3.73.28-7.6-.02-11.32" class="st2"/></g><g id="g46"><path id="path41" d="M409.11 215.56c-1.67-.51-5.05-1.69-5.54-1.86-19.96-6.97-37-18.2-50.32-34.74-10.23-12.71-17.24-26.93-19.15-43.3-1.09-9.37-.45-18.47 4.46-26.98 3.72-6.44 8.76-11.08 15.66-13.67 6.81-2.56 13.87-2.87 20.97-1.68 9.5 1.59 17.33 5.96 22.62 14.28.13.2.74 1.14 1.13 1.78l-.81-2.47c-7.35-17.61-20.5-28.11-39.18-31.65-15.17-2.87-29.82-.46-44.1 4.88-1.85.69-3.67 1.44-5.47 2.25-1.8.8-3.57 1.66-5.33 2.56q-1.755.9-3.48 1.86c-.43.24-1.46.72-2.24 1.07-2.89 2.31-5.28 5.11-7.71 7.87 1.17 1.74 2.4 3.45 3.5 5.23 3.77 6.1 6.46 12.45 8.05 19.03.21.88.4 1.76.58 2.64.52 2.66.86 5.35 1.02 8.09.05.91.09 1.83.1 2.75s0 1.84-.02 2.77c-.07 2.32-.26 4.67-.57 7.04-.18 1.37-.41 2.73-.68 4.07-.2 1.01-.42 2-.67 2.99-.16.66-.34 1.32-.52 1.97-.37 1.3-.77 2.6-1.21 3.87q-.495 1.44-1.05 2.85c-1.98 5.03-4.51 9.84-7.46 14.49-.1.16-.21.31-.32.46-.04.06-.08.11-.12.17-.28.4-.55.82-.65 1.32 9.48 14.17 21.81 25.33 36.24 34.29 3.59 2.23 7.24 4.33 11.02 6.24 7.73-1.38 15.21-3.11 22.86-4.19 1.39-.2 2.79-.37 4.2-.52.7-.07 1.41-.14 2.12-.2 1.42-.12 2.84-.2 4.28-.25h.01l1.21-.03c11.45-.17 26.43 2.62 37.34 4.91a8 8 0 0 1-.78-.22z" class="st4"/><path id="path42" d="M243.25 216.15c-6.64 1.81-13.35 3.23-20.15 4.11-1.24.16-2.48.3-3.72.43-1.86.19-3.74.33-5.62.43-10.12.54-20.16-.05-30.13-1.92-2.44-.46-4.8-1.28-7.28-1.54 9.78 4.84 18.68 9.61 26.66 17.23 6.57 6.27 12.15 13.53 16.42 21.56 9.57 18.01 11.44 37.82 9.69 57.84l57 .24h.06c-.03-.37-.02-.75-.1-1.12-1.5-6.78-2.54-13.62-2.85-20.58-.46-10.36.7-20.49 3.84-30.39.96-3.04 2.4-5.9 3.39-8.93-10.05-18.85-27.59-30.32-47.24-37.36z" class="st4"/><path id="path43" d="M185.92 103.84c6.93-7.9 17.66-11.28 27.93-11.09 11.42.21 20.63 4.66 27.49 13.79l.01.01c.29-.46-.08-.8-.25-1.15-3.62-7.3-8.16-13.94-14.15-19.52-7.71-7.18-16.66-11.75-27.24-12.97-3.42-.39-6.84-.42-10.26-.56-13.98 2.95-27.96 9.53-38.81 18.87-18.74 16.13-29.5 45.57-15.67 68.32 13.72 22.58 43.98 14.86 59.98-.69-20.25-7.25-21.66-40.61-9.02-55.02z" class="st4"/><path id="path44" d="M410.26 287.61c5.38.62 10.7 1.95 15.52 4.47 8.86 4.63 14.69 12.88 17.78 22.23l51.52-.03c-1.6-13.13-6.55-26.44-16.1-35.88-9.08-8.98-21.22-13.46-33.87-13.91-12.07-.44-25.56 1.62-33.19 12.02-1.6 2.19-2.83 4.62-3.68 7.19-.97 2.95-1.09 3.56 2.01 3.91z" class="st4"/><path id="path45" d="M422.79 372.92c-9.89 3.8-19.86 3.28-29.78-.09-.9-.19-1.01-.29-1.85-.46.57.4.67.48.99.73 18.47 9.68 38.12 14.8 58.97 15.07 7.56.1 14.78-1.67 21.55-5.13l1.83-.77.38-.35c9.7-8.9 15.38-20.21 18.96-32.75H444.4c-3.44 11.33-10.48 19.47-21.62 23.76z" class="st4"/><path id="path46" d="M269.69 361.4c.56-.66 1.12-1.33 1.69-1.99 2.81-3.27 5.32-6.75 7.82-10.26h-62.3c-5.06 9.03-13.55 16.64-22.8 21.18a52.2 52.2 0 0 1-14.35 4.59c-6.52 1.09-12.27.13-18.69-.87 3.07 1.97 7.23 2.84 11 3.59.87.17 1.72.34 2.53.51 4.92 1.04 9.88 2.03 14.85 2.81 9.63 1.5 19.43 1.99 29.14 1.03 18.35-1.8 35.13-8.55 49.75-19.67z" class="st4"/></g><path id="path47" d="M135.17 327.83c-.26 2.3-.58 4.6-.4 6.93v1.88c.12-.25.26-.5.37-.76.04-.09.07-.17.11-.26.71-1.95 1.51-3.81 2.41-5.57.45-.88.91-1.74 1.4-2.58 2.45-4.19 5.42-7.83 8.85-11 5.48-5.08 12.11-8.97 19.55-12.03.05-.59-.26-1.08-.47-1.59-1.85-4.5-4.15-8.76-6.87-12.8-16.35 4.68-23.9 22.32-24.95 37.76z" class="st1"/><path id="path48" d="M139.06 327.49c-.49.84-.96 1.7-1.4 2.58.45-.88.91-1.74 1.4-2.58" class="st1"/><path id="path49" d="M134.77 336.65c.12-.25.26-.5.37-.76-.11.26-.25.5-.37.76" class="st1"/><path id="path50" d="M147.91 316.49c5.48-5.08 12.11-8.97 19.55-12.03-7.44 3.06-14.07 6.95-19.55 12.03" class="st1"/><path id="path51" d="M381.2 348.02c-8.92-9.56-13.98-21.05-16.84-33.64l-12.37-.03c.84 6.72 2.13 13.32 4.55 19.67 1.15 3.02 2.42 5.97 3.89 8.83 1.14 2.22 2.4 4.38 3.82 6.47 5.51-.02 11.03-.03 16.54-.06.55 0 1.12.11 1.66-.13-.42-.37-.88-.71-1.26-1.11z" class="st1"/><path id="path53" d="M381.2 348.02c.38.41.84.74 1.26 1.11-.42-.37-.88-.71-1.26-1.11" class="st1"/><g id="g58"><path id="path54" d="m474.88 381.91-.38.35-1.83.77c-6.77 3.45-14 5.23-21.55 5.13-20.85-.27-40.5-5.4-58.97-15.07-.32-.24-.42-.32-.99-.73l.02.04-1.1-.54c-.91-.47-1.8-.96-2.72-1.42-9.72-4.84-17.43-11.87-23.09-21.13a62 62 0 0 1-3.82-6.47c-1.47-2.86-2.74-5.81-3.89-8.83-2.42-6.35-3.72-12.96-4.55-19.67-2.34-22.79 1.13-45.36 13.75-64.85 10.54-16.27 26.24-26.93 44.14-33.72l-.78-.22c.34.1.62.18.78.22-10.91-2.29-25.89-5.08-37.34-4.91-.4 0-.8.01-1.21.03h-.01c-1.44.05-2.87.14-4.28.25-.71.06-1.41.12-2.12.2-1.41.15-2.81.32-4.2.52-7.66 1.08-15.13 2.81-22.86 4.19-6.85 2.22-13.46 4.98-19.61 8.76-11.63 7.14-21.12 16.36-27.58 28.5-.04.08-.12.14-.19.21-1 3.03-2.43 5.88-3.39 8.93-3.14 9.9-4.3 20.03-3.84 30.39.31 6.96 1.35 13.8 2.85 20.58.08.36.07.74.1 1.12 1 3.07 1.85 6.14 2.79 9.2.31 1.02.63 2.03.97 3.04.62 1.84 1.29 3.66 2.08 5.47 2.63 6.03 6.3 11.27 9.58 16.92 4.34 4.96 7.94 10.47 12.47 15.3 4.7 5.03 9.83 9.66 15.33 13.81 20.4 15.39 45.53 24.12 71.02 25.24 13.57.6 27.53-.49 40.64-4.11 6.18-1.7 12.27-3.86 18.01-6.72 4.95-2.46 12.35-6.28 15.79-10.77z" class="st3"/><path id="path55" d="M290.61 175.52c.12-.57.45-1.03.77-1.49.11-.15.22-.31.32-.46 2.96-4.65 5.49-9.47 7.46-14.49q.555-1.41 1.05-2.85c.44-1.28.84-2.57 1.21-3.87.18-.65.36-1.31.52-1.97.25-.99.47-1.99.67-2.99.27-1.34.49-2.7.68-4.07.32-2.37.51-4.72.57-7.04a64 64 0 0 0-.08-5.52c-.16-2.73-.5-5.43-1.02-8.09-.17-.89-.37-1.77-.58-2.64-1.59-6.58-4.29-12.92-8.05-19.03-1.1-1.78-2.33-3.49-3.5-5.23-6.09-5.95-11.64-11.48-19.19-15.66-7.99-4.42-16.67-7.48-25.62-9.3-18.1-3.69-38.56-3.59-56.38 1.55 3.42.14 6.85.17 10.26.56 10.58 1.21 19.53 5.79 27.24 12.97 5.99 5.58 10.53 12.22 14.15 19.52.17.35.54.69.25 1.15l-.01-.01.55 1c10.71 23.61 2.09 50.1-13.17 69.69-14.77 18.97-34.82 31.04-57.47 38.34v.29l5.1 1.8c2.48.25 4.84 1.08 7.28 1.54 9.97 1.87 20 2.46 30.13 1.92 1.88-.1 3.75-.25 5.62-.43 1.24-.12 2.48-.27 3.72-.43 6.8-.88 13.51-2.3 20.15-4.11 4.08-2.31 8.23-4.49 12.19-7.01 12.85-8.17 23.97-18.2 32.97-30.53.74-1.02 1.27-2.19 2.2-3.08z" class="st3"/><path id="path56" d="M304.06 84.97c1.75-.9 3.53-1.76 5.33-2.56s3.62-1.56 5.47-2.25c14.29-5.34 28.94-7.76 44.1-4.88 18.67 3.54 31.83 14.04 39.18 31.65l.81 2.47.07.21c7.4 16.07 5.26 41.6-12.95 49.28 13.93 13.1 37.92 22.13 54.19 7.62 14.1-12.57 14.38-35.87 7.46-52.16-6.97-16.4-21.26-28.38-37.22-35.65-18.13-8.25-39.29-11.17-59.07-10-9.77.58-19.53 2.29-28.78 5.55a84 84 0 0 0-13.21 5.96c-2.92 1.64-7.6 4.94-11.1 7.69.77-.35 1.8-.83 2.24-1.07q1.725-.96 3.48-1.86" class="st3"/><path id="path57" d="M134.77 336.65v-1.88c-.18-2.33.14-4.63.4-6.93 1.04-15.45 8.6-33.08 24.95-37.76 3.18-1.3 6.57-1.96 9.98-2.33 3.14-.34 3.8-.26 2.86-3.52-1.38-4.79-4.23-9.07-8.07-12.24-9.94-8.22-22.89-7.74-35-7.02-.56.1-1.11.21-1.67.32-.83.17-1.65.35-2.47.54-7.33 1.72-14.11 4.45-20.14 9.34a45 45 0 0 0-3.92 3.58 48 48 0 0 0-4.49 5.36c-1.71 2.36-3.21 4.86-4.54 7.47a66 66 0 0 0-1.51 3.18c-.47 1.08-.92 2.17-1.34 3.27-7.2 20.54-6.4 43.63 1.72 63.7.21.13.52.33.84.46.09.04.17.07.26.09.33.09.67.18 1 .26.34.08.67.16 1.01.23 1.01.22 2.02.39 3.03.52.34.04.67.08 1.01.11a30.7 30.7 0 0 0 7.08-.13c.67-.09 1.35-.21 2.02-.35.34-.07.67-.15 1.01-.23.87-.21 1.71-.45 2.53-.71a43 43 0 0 0 2.41-.83c.78-.3 1.55-.62 2.29-.96s1.47-.7 2.17-1.08a32.4 32.4 0 0 0 4.89-3.24 31.4 31.4 0 0 0 5.04-5.12c3.03-3.88 5.24-8.58 6.65-14.07z" class="st3"/><path id="path58" d="M268.34 362.32c-14.62 11.12-31.4 17.86-49.75 19.67-9.71.95-19.51.46-29.14-1.03-4.97-.77-9.93-1.77-14.85-2.81-.81-.17-1.66-.34-2.53-.51-3.77-.74-7.94-1.61-11-3.59-1.2-.51-2.4-1.03-3.59-1.54-.22.22-.47.42-.68.65-.07.07-.14.15-.21.23-7.41 9.17-16.51 16.11-27.31 20.84-.63.27-1.37.35-1.84.95.18.04.38.06.55.13 10.36 4.24 21.14 6.68 32.29 7.65 8.2.72 16.39.89 24.61.25 10.34-.81 20.42-2.77 30.26-6.01 20.25-6.66 37.74-17.66 52.26-33.3.41-.44 1.57-1.7 2.29-2.51l-1.36.92z" class="st3"/></g></g></g><g id="layer1" transform="translate(4.394 120.88)scale(.64834)"><g id="g60" style="clip-rule:evenodd;fill-rule:evenodd;stroke-linejoin:round;stroke-miterlimit:1.5" transform="translate(14.494 408.926)scale(.15193)"><g id="g17" transform="translate(-214.461 -1208.99)scale(2.66667)"><g id="g16" transform="matrix(1.05081 0 0 .60246 5.806 108.651)"><g id="g15"><g id="g1" transform="matrix(.97384 0 0 1.69858 -1.568 -229.112)"><path id="path1-7" d="m81.582 577.266 66.954-98.462" style="fill:none;stroke:#fff;stroke-width:14.11px"/></g><g id="g2" transform="matrix(.96134 0 0 1.67678 882.45 -216.54)"><path id="path2-0" d="m81.582 577.266 66.954-98.462" style="fill:none;stroke:#fff;stroke-width:14.86px"/></g><g id="g7" transform="matrix(12.0448 0 0 21.0595 -7445.39 -7644.88)"><g id="g3" transform="matrix(12 0 0 12 640.988 399.072)"><path id="path3-9" d="M.079 0v-.716h.518v.085H.174v.219H.57v.084H.174v.244h.439V0Z" style="fill:#fff;fill-rule:nonzero"/></g><g id="g4" transform="matrix(12 0 0 12 648.992 399.072)"><path id="path4-3" d="m.045-.23.089-.008a.2.2 0 0 0 .03.088.16.16 0 0 0 .072.056.3.3 0 0 0 .11.021.3.3 0 0 0 .095-.016.13.13 0 0 0 .062-.044.1.1 0 0 0 .02-.061.1.1 0 0 0-.019-.059.14.14 0 0 0-.065-.042A1 1 0 0 0 .312-.33a.6.6 0 0 1-.138-.045.2.2 0 0 1-.077-.067.2.2 0 0 1-.025-.089q0-.054.031-.101a.2.2 0 0 1 .09-.072.3.3 0 0 1 .131-.024q.08 0 .141.026a.21.21 0 0 1 .128.188l-.091.007A.14.14 0 0 0 .453-.61Q.411-.645.328-.645q-.086 0-.125.032a.1.1 0 0 0-.039.076.08.08 0 0 0 .027.063.4.4 0 0 0 .143.051q.115.027.159.046a.2.2 0 0 1 .092.073q.03.044.03.102a.2.2 0 0 1-.033.108.2.2 0 0 1-.094.078.4.4 0 0 1-.301 0 .23.23 0 0 1-.103-.085.24.24 0 0 1-.039-.129" style="fill:#fff;fill-rule:nonzero"/></g><g id="g5" transform="matrix(12 0 0 12 656.996 399.072)"><path id="path5-6" d="M.08 0v-.716h.095v.294h.372v-.294h.095V0H.547v-.337H.175V0Z" style="fill:#fff;fill-rule:nonzero"/></g><g id="g6" transform="matrix(12 0 0 12 665.662 399.072)"><path id="path6-0" d="M.259 0v-.631H.023v-.085h.568v.085H.354V0Z" style="fill:#fff;fill-rule:nonzero"/></g></g><g id="g8" transform="matrix(.9773 0 0 1.70462 -43.643 50.53)"><path id="path7-6" d="m187.032 410.85 63.864-93.658 64.011 93.51" style="fill:none;stroke:#fff;stroke-width:13.85px"/></g><g id="g9" transform="matrix(.9773 0 0 1.70462 468.182 53.07)"><path id="path8-2" d="m187.032 410.85 63.864-93.658 64.011 93.51" style="fill:none;stroke:#fff;stroke-width:13.85px"/></g><g id="g12" transform="matrix(.57332 0 0 1 784.482 759.924)"><g id="g10" transform="scale(252.104 252.715)"><path id="path9-6" d="m.045-.23.089-.008a.2.2 0 0 0 .03.088.16.16 0 0 0 .072.056.3.3 0 0 0 .11.021.3.3 0 0 0 .095-.016.13.13 0 0 0 .062-.044.1.1 0 0 0 .02-.061.1.1 0 0 0-.019-.059.14.14 0 0 0-.065-.042A1 1 0 0 0 .312-.33a.6.6 0 0 1-.138-.045.2.2 0 0 1-.077-.067.2.2 0 0 1-.025-.089q0-.054.031-.101a.2.2 0 0 1 .09-.072.3.3 0 0 1 .131-.024q.08 0 .141.026a.21.21 0 0 1 .128.188l-.091.007A.14.14 0 0 0 .453-.61Q.411-.645.328-.645q-.086 0-.125.032a.1.1 0 0 0-.039.076.08.08 0 0 0 .027.063.4.4 0 0 0 .143.051q.115.027.159.046a.2.2 0 0 1 .092.073q.03.044.03.102a.2.2 0 0 1-.033.108.2.2 0 0 1-.094.078.4.4 0 0 1-.301 0 .23.23 0 0 1-.103-.085.24.24 0 0 1-.039-.129" style="fill:#fff;fill-rule:nonzero"/></g><g id="g11" transform="matrix(252.104 0 0 252.715 168.151 0)"><path id="path10-1" d="M.259 0v-.631H.023v-.085h.568v.085H.354V0Z" style="fill:#fff;fill-rule:nonzero"/></g></g><g id="g14" transform="matrix(.57332 0 0 1 1030.51 760.498)"><g id="g13" transform="scale(252.104 252.715)"><path id="path12-8" d="m.588-.251.095.024a.32.32 0 0 1-.108.178.3.3 0 0 1-.189.061.33.33 0 0 1-.188-.047.3.3 0 0 1-.11-.136.5.5 0 0 1-.038-.192q0-.112.043-.195a.3.3 0 0 1 .121-.127.36.36 0 0 1 .174-.043q.107 0 .18.055A.28.28 0 0 1 .67-.52l-.093.022a.2.2 0 0 0-.072-.113.2.2 0 0 0-.119-.036.23.23 0 0 0-.138.04.2.2 0 0 0-.078.106.44.44 0 0 0 .004.297.2.2 0 0 0 .083.101.23.23 0 0 0 .121.034.2.2 0 0 0 .135-.046.23.23 0 0 0 .075-.136" style="fill:#fff;fill-rule:nonzero"/></g></g></g></g></g></g></g></svg>