<svg xmlns="http://www.w3.org/2000/svg" xml:space="preserve" id="svg7" width="800" height="480" viewBox="0 0 800 480"><defs id="defs3"><linearGradient id="linear-gradient" x1="851.55" x2="247.48" y1="851.37" y2="220.63" gradientUnits="userSpaceOnUse"><stop id="stop1" offset="0" stop-color="#0455a4"/><stop id="stop2" offset=".52" stop-color="#00aeef"/><stop id="stop3" offset="1" stop-color="#00a76e"/></linearGradient><style id="style1">.st2{fill:#eb088c}</style></defs><g id="g19" transform="translate(186.083 -11.818)scale(.38753)"><g id="Layer_1"><path id="path3" d="M994.54 507.46c-13.12-1.19-25.19 6.57-29.29 19.73l-207.16.04v16.41h207.22c4.07 12.13 15.18 19.88 27.63 19.28 13.07-.63 23.61-9.75 26.28-22.86v-9.59c-2.4-12.46-12.22-21.87-24.68-23zm-2.42 39.14c-6.25 0-11.32-5.06-11.32-11.31s5.07-11.31 11.32-11.31 11.32 5.06 11.32 11.31-5.07 11.31-11.32 11.31m-812.65 33.81c6.97-10.39 5.43-11.31 16.61-18.4 4.36-2.76 9.95-3.04 14.92-3.34 11.9-.73 9.3 10.41 20.42 5.22l.78-6.25 32.84-1.51c11.44-.53 9.11 5.84 15.27 2.31.49-1.59.76-4.18 1.05-6.78l32.51-.64 23.96-.36 85.73-.19.07-17.71-40.21-.16-42.47-48.57-126.89.02-12.82-12.85c7.02-10.21 7.19-23.21-.53-33.25-6.93-9.01-19.25-13.33-31.16-9.24-10.38 3.57-18.41 13.62-18.6 25.72-.14 9.21 4.33 17.27 10.94 22.37 7.5 5.78 16.69 6.85 25.7 4.38l19.45 19.31h124.9l27.65 33.36-18.99.12-59.32.08c-.1-1.96-.06-4.71-.82-5.8-1.73-2.47-5.75-1.91-7.82.18-1.38 1.39-3.94 2.62-5.99 2.41l-34.63-3.54-.61-5.97c-9.03-5.67-10.96 4.11-15.67 4.63-3.62.4-7.43.56-10.91-.12-11.69-2.28-20.51-10.49-25.44-21.07l-8.13-.25c-2.43-.07-3.99 1.29-4.57 3.79l-37.85.24c-1.42 0-2.6 1.5-2.61 2.57l-.06 9.91-36.42.04c-3.42 0-5.53 3.36-4.83 6.21.74 3.03 2.91 4.56 6.17 4.52l35.07-.38.47 22.41-35.88.59c-3.22.05-5.33 2.2-5.61 4.58-.24 2.04 1.11 5.52 4.03 5.53l36.61.08.6 11.2 40.42.12c-.09 6.52 7.97 4.58 12.66 4.51zm-.79-114.56c-6.29 0-11.39-5.1-11.39-11.38s5.1-11.38 11.39-11.38 11.39 5.1 11.39 11.38-5.1 11.38-11.39 11.38m25.31-142.8c7.46 6.16 16.94 7.57 26.36 4.96 1.67 1.09 2.93 2.74 4.42 4.23l53.75 53.8h120.37l.17-22.5-7.56-.16c-1.36-.03-2.75-1.87-2.75-3.54l.02-80.32-37.03-37.31-21.55-21.53c4.4-11.33 1.74-23.45-7.25-31.45-8.26-7.35-20.51-9.49-31.25-3.94-9.28 4.8-15.77 15.04-15.03 26.6.59 9.25 6.07 17.33 13.07 21.58 16.9 10.26 28.11-1.48 30.94 1.34l51.66 51.77-.07 76.31-41.58-41.36c8.91-15.88.93-34.92-15.7-40.28-16.4-5.29-33.81 5.73-36.07 23.24-1.32 10.19 3.45 19.91 11.27 25.59 8.26 6 18.42 6.91 28.13 2.86 2.08 1.25 3.45 2.99 5.14 4.69l32.41 32.57-69.53.06-45.02-44.95c-2.49-2.49-4.85-4.48-7.2-7.43 7.41-10.68 6.85-23.39-.53-33.07-6.83-8.95-18.8-13.21-30.61-9.46-10 3.17-18.14 12.48-19.07 24.15-.75 9.45 3.44 18.02 10.11 23.53zm110.33-102.11c-6.26 0-11.33-5.07-11.33-11.33s5.07-11.33 11.33-11.33 11.33 5.07 11.33 11.33-5.07 11.33-11.33 11.33m2.11 97.77c-6.26 0-11.33-5.07-11.33-11.33s5.07-11.33 11.33-11.33 11.33 5.07 11.33 11.33-5.07 11.33-11.33 11.33m-94.91-28.76c6.29 0 11.39 5.1 11.39 11.38s-5.1 11.38-11.39 11.38-11.39-5.1-11.39-11.38 5.1-11.38 11.39-11.38m455.76 503.59c-8.57-5.67-18.28-5.58-27.74-1.79l-37.59-30.91-.11-45.46c-5.78 4.72-10.3 8.28-16.36 12.27l-.04 161.08 19.07 18.79c-3.73 11.32-.59 23.23 8.68 30.76 8.74 7.11 21.42 8.71 32.2 2.11 8.5-5.21 14.35-15.53 13.03-26.91-1.15-9.9-7.7-18.04-15.88-21.8-9.5-4.36-19.61-3.14-28.06 2.67l-12.58-12.59.06-99.41 26.46 19.69c-6.37 10.67-5.56 23.37 2.57 32.79 7.52 8.72 20.14 12.47 32.03 7.4 9.55-4.07 16.93-14.07 16.88-25.69-.04-9.67-5.33-18.14-12.63-22.98zM640.96 905.8c6.26 0 11.33 5.07 11.33 11.32s-5.07 11.32-11.33 11.32-11.33-5.07-11.33-11.32 5.07-11.32 11.33-11.32m21.21-77.4c-6.26 0-11.33-5.07-11.33-11.33s5.07-11.33 11.33-11.33 11.33 5.07 11.33 11.33-5.07 11.33-11.33 11.33m229.85-369.48c-.92.26-2.86 1.1-3.45 1.84l-3.14 3.94-8.59.22-2.04 2.59c-1.77-1.12-2.89-1.09-4.27-.33l-2.3-.82-2.16.83c-.45.17-1.54-.99-1.95-.8l-1.79.82-3.19-.98-.58 8.2-100.65.03.07 21.21h100.64l.58 6.99c.03.39 1.45.47 1.73.2l1.3-1.22c.62.45 1.8 1.81 2.29 1.43l1.71-1.32 2.27 1.27 1.99-1.23c.28-.17 1.78 1.47 2.16 1.18l1.87-1.44c.49.27 1.71 2.25 2.34 2.26l8.86.24c2.5 2.47 4.51 4.35 7.19 6.14l3.97-3.44 15.88.19 22.13-.17.4-7.55 18.2-.07.12-29.37-18.62-.48-.75-7.87-38.91-.04c-.94-.6-2.41-2.69-3.3-2.44zM475.73 762l.1 54.14 1.25 11.69c.87 3.24 4.35 5.06 6.06 7.34 1.76 4.59 1.03 10.31 1.29 15.25l1.69 32.3 4.13 73.86c.35 6.3-2.18 11.5-7.17 15.12l-8.36 6.06c.85 1.2 2.63 2.09 3.76 1.8 7.65-1.92 13.79-5.66 18.98-11.55 2.59-2.94 3.06-7.31 3.43-11.34l.59-6.35 5.8-115.51c4.58-2.09 7.68-5.5 7.97-10.49v-63.76c-13.22 2.05-26.3 2.6-39.53 1.45zm-93.61-354.5c-2.18-2.84-6.65-1.96-9.11-.61-5.94 3.25-2.61 9.29-4.19 14.45l-90.52.03-4.07 3.72-33.66.13c-3.13 1.63-13.43 4.25-12.64 7.59.72 3.03 8.12 6.13 11.24 7.15l35.43.27 2.73 2.7h87.12c1.17-.01 4.18.63 4.49 1.62l.56 6.4c.31 3.56 2.9 6.38 5.49 7.2 3.44 1.09 7.08.19 9.2-2.64l6.31-8.44 47.79-.09 20.69-29.96-69.36.23-7.48-9.75zm-1.22 41.46c0 2.06-2.08 3.66-3.6 3.56-1.4-.09-3.06-1.92-3.06-3.7l-.13-32.07c0-1.92 1.69-3.78 3.32-4.02 1.27-.19 3.48 1.56 3.48 3.34v32.89zm-20.06 377.23c1.52-2.69 3.35-6.14 4.57-9.04l11.85-28.03 32.33-33.44c3-3.1 5.51-5.87 8.4-9.29l-15.5-7.69-12.48 13.04-24.8 25.31c-10.54 7.03-22.93 10.79-31.98 19.61l-32.28 31.46 6.33 6.43c1.69 1.71 1.49 3.95-.09 5.68l-9.55 10.5c-.92 1.02-2.92 1.53-3.96.61-.67-.59-.95-2.5-.45-3.34l5.07-8.36c.82-1.34.74-2.99.06-4.19-.49-.87-3.18-1.72-3.86-.81l-12.58 16.99c-.39 1.18-.68 4.34.02 5.47l21.34 19.49 22.8-22.73 4 2.76 30.74-30.43zm180.25-605.11-.33 60.66c-8.32 20.22-6.13 14.89-6.25 37.53l34.13-.07c.01-20.8 1.97-18.93-6.56-37.75l-.3-60.35c-.02-3.58-2.34-5.98-6.05-6.73l-.04-52.28c4.07-.61 7.7-2.08 9.31-6.11 1.15-2.89-.61-6-2.08-8.35 1.39-1.71 3.34-4.21 3.43-5.98.14-2.58-1.33-4.47-3.26-6.58 3.97-3.32 2.98-8.4-.45-11.76 1.06-2 2.42-4.6 2.29-6.65-.37-5.85-4.35-9.8-9.86-11.91l-.09-27.3c0-1.61.85-3.79 1.72-5.12 3.03-4.63 3.76-10.63.06-15.17-2.11-2.59-7.96-3.55-10.37-.83-4.55 5.14-3.42 13.22 1.35 17.98l.11 34.52c.02 5.62 9.17 2.23 9.86 7.28.13.96-1.26 2.62-2.1 2.86-3.96 1.12-7.38-3.78-13.95-2.26-2.37.55-3.84 2.4-3.87 4.38-.09 6.25 12.06 4.02 16.06 3.21 1.98-.41 4.08 1.36 4.33 2.93.26 1.62-1.85 4.03-3.7 3.73l-11.61-1.86c-1.93-.31-4.95 2-5.1 3.9-.53 6.9 13.63 4.17 17.29 3.04 1.07.38 3.09 2.2 3.16 3.3-2.85 8.64-9.64-1.65-17.87 2.26-1.44.68-3 2.65-2.82 3.92.99 6.88 12.42 4.32 17.22 2.91 1.87-.55 4.63 2.2 3.32 4.33-.88 1.44-4.23 2.93-6.23 3.09-3.26-2.35-7.75-4.15-11.42-2.47-1.01.46-2.4 2.45-2.67 3.45 2.27 10.27 10.06 2.67 10.05 9.46l-.04 47.6c-3.34 1.21-6.67 3.26-6.69 7.17zM439.18 825.59v-71.66l-16.38-5.53-.14 70.48-52.85 52.89c-14.66-9.91-34.4-3.84-41.18 12.25-6.71 15.91 2.55 34.13 19.82 37.97 10.23 2.25 20.4-1.63 26.86-9.21 6.69-7.84 8.25-18.04 4.89-28.26l58.98-58.92zm-85.31 80.58c-6.26 0-11.33-5.07-11.33-11.32s5.07-11.32 11.33-11.32 11.33 5.07 11.33 11.32-5.07 11.32-11.33 11.32m102.46-712.11c9.29 3.5 18.29 2.14 26.33-3.18l12.74 12.83v115.75c5.74.19 10.96.18 16.45-.26V196.5l-19.19-18.6c4.16-11.67.41-24.27-9.25-31.65-9.71-7.42-23.01-7.75-33.04-.56-9.63 6.9-14.17 19.42-10.35 31.15 2.74 8.41 9.34 14.59 16.31 17.22m10.04-37.46c6.26 0 11.33 5.07 11.33 11.33s-5.07 11.33-11.33 11.33-11.33-5.07-11.33-11.33 5.07-11.33 11.33-11.33m-218.8 606.19 50.76-50.63 44.4.05 25.04.11-13.55-15.18h-64.07l-29.43 29.51-4.85 4.82-22.9 22.88c-12.52-5.22-26.45-.83-33.65 9.63-7.79 11.3-6.35 25.85 2.65 35.18 9.34 9.69 24.06 11.61 35.28 4.1 12.01-8.04 15.87-23.1 9.51-35.99-.77-1.57-.61-3.05.83-4.48zm-25.85 28.64c-6.25 0-11.31-5.06-11.31-11.31s5.06-11.31 11.31-11.31 11.31 5.06 11.31 11.31-5.06 11.31-11.31 11.31m680.89-33.33c-8.37-5.71-17.94-6.11-27.03-2.65l-22.51-22.53-36.01-35.8-58.82.03.04 16.41h52.38c1.13.94 2.3 1.85 3.34 2.9l49.35 49.69c-6.42 10.58-5.61 23.24 2.22 32.54 7.4 8.8 19.67 12.62 31.34 8.14 9.86-3.79 17.57-13.51 17.82-25.5.21-9.86-5.07-18.42-12.11-23.22zm-15.62 34.52c-6.26 0-11.33-5.07-11.33-11.33s5.07-11.33 11.33-11.33 11.33 5.07 11.33 11.33-5.07 11.33-11.33 11.33m-682.7-152.49c4.06-9.78 2.26-18.94-3.09-27.55l12.26-12.08h99.48l-.72-16.42H207.23l-19.21 19.11c-11.78-4.2-24.13-.17-31.38 9.42-6.98 9.24-7.69 21.98-1.13 31.93 6.27 9.51 17.74 14.57 29.48 11.97 9.2-2.04 16.22-8.96 19.3-16.38m-25.86.72c-6.25 0-11.33-5.07-11.33-11.32s5.07-11.32 11.33-11.32 11.33 5.07 11.33 11.32-5.07 11.32-11.33 11.32m629.28 210.43c-8.98-5.46-20.37-5.16-29.65.63l-53.07-53.12v-35l-16.43-.14.02 42.3 53.15 53.07 5.99 5.79c-6.4 15.82 2.68 32.98 18.96 37.18 15.45 3.99 31.85-6.19 34.32-23.14 1.69-11.57-3.99-21.9-13.29-27.56zm-14.09 35.45c-6.26 0-11.33-5.07-11.33-11.33s5.07-11.33 11.33-11.33 11.33 5.07 11.33 11.33-5.07 11.33-11.33 11.33m150.95-280.26c-7.79-5.6-16.59-6.12-25.55-3.42l-19.03-18.99h-90.63l-.03 16.45h84.91l12.14 11.96c-6.47 9-7.41 19.44-2.43 29.28 4.07 8.03 12.64 14.66 23.24 15.16 16.81.8 30.15-13.23 29.27-29.49-.48-8.95-5.67-16.47-11.9-20.95zm-15.85 34.38c-6.25 0-11.31-5.06-11.31-11.31s5.06-11.31 11.31-11.31 11.31 5.06 11.31 11.31-5.06 11.31-11.31 11.31m-208.55-415 22.79 4.62 2.3-44.64c.51-9.8-1.82-19.37-7.15-27.29-3.86-5.89-9.31-9.33-16.1-10.74l-25.64-5.31-2.52 39.83c-.6 9.44.83 18.64 4.48 26.9 4 9.73 11.99 14.63 21.84 16.63m173.37 461.64c-5.6 1.46-12.72 4.06-16.25 9.38-5.26 7.94-9.55 16.09-14.41 24.5l36.48 13.88c13.11 4.99 24.91 7.18 37.36-1.11 7.96-9.28 12.68-18.15 18.22-29.23l-35.43-13.58c-8.51-3.26-16.53-4.47-25.97-3.84M373.35 232.65l32.44-27.88c9.34-8.03 18.92-24.6 11.78-37.2l-7.13-12.59c-2.2-3.87-4.57-7.39-7.48-11.05l-32.98 28.62c-6.84 5.93-11.13 13.91-12.86 22.84-.58 3.01-.78 8.53.63 11.15 4.82 8.99 9.97 16.82 15.62 26.11zm62.02 643.29-20.95-8.01c-1.52 3.82-2.37 6.87-3.14 10.58l-5.99 28.97c-.67 3.24-.47 7.02-.54 10.39-.13 6.72 1.18 13.48 5.05 19.19 1.76 2.6 5.05 6.12 7.98 7.31l23.34 9.44c.7.28 2.46.18 2.79-.24.25-.31.85-1.29.94-1.74l8.29-40.91c2.17-10.74-1.33-21.57-7.94-29.95-2.78-1.96-6.72-3.84-9.83-5.03m405.44-190.19c11.65.75 22.49-5.56 27.33-16.4 6.59-14.77-.67-32.07-15.92-37.53-14.25-5.1-30.24 2.16-35.85 17.31l-58.07.06v16.4l57.81.02c3.48 11.66 13.3 19.4 24.7 20.14m2.33-38.89c6.24 0 11.31 5.06 11.31 11.3s-5.06 11.3-11.31 11.3-11.31-5.06-11.31-11.3 5.06-11.3 11.31-11.3m-10.62-186.2c13.08-2.02 23.05-13.01 23.47-26.8.28-13.58-8.92-25.08-21.71-27.84-12.97-2.8-26.02 3.74-31.5 16.2-.37.85-1.49 2.22-2.27 2.89h-42.89l.01 16.42 44.15.03c4.4 13.47 17.2 21.18 30.74 19.1m-3.96-38.62c6.25 0 11.31 5.06 11.31 11.31s-5.06 11.31-11.31 11.31-11.31-5.06-11.31-11.31 5.06-11.31 11.31-11.31M223.8 387.22c5.97-2.92 9.17-7.75 11.2-13.58l6.81-19.55-40.14-7.02c-7.49-1.31-14.55.64-20.99 3.59-3.6 2.35-7.26 5.03-8.74 9.23l-8.4 23.78 36.48 6.47c8.08 1.43 16.26.72 23.77-2.92zm226.24-146.14c-12.85-2.63-25.67 3.43-31.03 15.35-7.1 15.79 1.15 33.6 17.99 38.71l.23 24.45 15.64-.07.07-24.9c12.4-4.16 19.78-15.77 18.96-28.07-.85-12.72-9.98-23.05-21.85-25.48zm-5.7 38.12c-6.25 0-11.31-5.06-11.31-11.31s5.07-11.31 11.31-11.31 11.31 5.06 11.31 11.31-5.07 11.31-11.31 11.31M275.92 622.9c-12.59 1.24-23.11 11.11-24.71 24.32-1.68 13.87 7.17 26.76 20.21 30.19 13.34 3.51 27.01-2.85 32.7-15.69.4-.9 1.63-2.35 2.44-2.97l22.75-.03-7.17-15.69-16.66-.09c-3.99-13.2-16-21.38-29.57-20.04zm2.51 38.81c-6.24 0-11.31-5.06-11.31-11.3s5.06-11.3 11.31-11.3 11.31 5.06 11.31 11.3-5.06 11.3-11.31 11.3m502.86 140.66c16.29 5.7 34.04-4.74 36.69-22.45 1.63-10.87-3.54-20.61-11.48-26.34-8.67-6.25-19.21-6.42-28.98-2.3l-19.24-19.03-.35 22.75 8.2 7.63c-8.54 15.64-.87 34.12 15.16 39.73zm9.23-37.2c6.26 0 11.34 5.07 11.34 11.33s-5.08 11.33-11.34 11.33-11.34-5.07-11.34-11.33 5.08-11.33 11.34-11.33m-554.11-35.93c5.51-.55 9.27-4.47 12.62-7.97 4.05-4.23 7.61-8.01 11.56-12.81l-26.9-17.56c-5.97-3.9-12.87-6.2-19.86-5.8-6.08.35-10 3.46-13.75 7.63l-11.49 12.78 27.35 18.14c5.92 3.93 13.11 6.32 20.47 5.59m63.7-4.64-10.57 20.52c-3.36 6.52-6.59 12.63-7.52 20.05-.09 5.76.18 13.43 5.35 17.29l17.53 13.09 15.42-30.23c3.65-7.16 4.32-15.77 1.05-23.04-2.35-5.23-15.38-14.35-21.26-17.67zm432.72 121.68-14.56 13.8c-6.55 6.21-13.03 12.16-17.03 20.62-2.07 4.37-2.12 11.66.66 15.76l12.16 17.89 15.83-14.95c5-4.72 9.78-8.88 13.14-14.59 9.21-15.68 1.19-21.42-4.84-31.66-1.57-2.66-3.04-4.57-5.35-6.87zM644.77 713.3l-2.04 2.47c1.71-.33 2.39-1.14 2.04-2.47m172.77-326.56c2.08-1.36 3.77-2.87 5.44-4.57l42.16-42.65 11.29-11.55c11.67 4.55 23.85 1.14 31.47-7.89 7.57-8.97 8.83-21.65 2.72-32.03a27.83 27.83 0 0 0-28.9-13.25c-9.64 1.69-16.79 8.38-20.2 15.8-4.23 9.2-3.01 18.74 2.11 27.15l-52.64 52.57-69.72-.1 30.97-31.12 5.16-5.53c15.07 8.38 33.16 1.58 39.42-13.96 6.17-15.3-2.47-32.87-18.93-37.19-10.38-2.73-20.92.93-27.87 8.8-6.72 7.62-8.5 19.14-4.73 28.47.4.99.1 3.11-.65 3.86L742.2 345.8l-.04-76.64 35.47-35.61c10.53 6.3 23.47 5.73 32.86-2.35 8.95-7.7 12.51-20.22 7.75-31.78-4.33-10.52-15.1-17.85-27.3-17.2-9.22.5-16.92 5.72-21.41 12.36-5.58 8.24-5.64 17.44-2.64 26.59l-34.17 34.39c-1.92 1.93-3.97 4.52-4.97 7.05l-.04 96.72-13.03 11.58-21.92.15c-3.21 5.19-6.19 9.3-9.17 15.57l133.94.12zm69.51-96.02c6.26 0 11.33 5.07 11.33 11.32s-5.07 11.32-11.33 11.32-11.33-5.07-11.33-11.32 5.07-11.32 11.33-11.32m-95.67 7.21c6.26 0 11.33 5.07 11.33 11.33s-5.07 11.33-11.33 11.33-11.33-5.07-11.33-11.33 5.07-11.33 11.33-11.33m1.55-99.32c6.25 0 11.32 5.07 11.32 11.32s-5.07 11.32-11.32 11.32-11.32-5.07-11.32-11.32 5.07-11.32 11.32-11.32m98.48 154.68c-5-1.29-10.55-2.88-15.18-.03l-18.17 11.15 21.03 25.25c1.6 1.93 4.12 3.66 6.17 5.39 5.49 4.64 13.57 7.09 20.35 3.97 6.84-3.15 12.68-6.8 19.43-11.22l-20.37-24.55c-3.58-4.31-8.45-7.18-13.26-9.96m-295.94-34.48h16.44V203.43l12.18-12.24c13.07 9.34 29.9 6.2 38.86-6.57 9.07-12.93 5.86-30.21-7.31-38.99-10.55-7.03-24.16-6.37-33.51 2.22-8.73 7.73-11.75 19.38-8.06 30.26l-18.61 18.58.02 122.12zm45.15-161.47c6.24 0 11.31 5.06 11.31 11.3s-5.06 11.3-11.31 11.3-11.31-5.06-11.31-11.3 5.06-11.3 11.31-11.3m-.24 93.76c-5.81 7.29-7.42 16.39-4.47 26.09 2.04 6.71 8 13.66 15.65 16.88.9.38 2.24 1.56 2.84 2.22l.05 22.96 15.72-.03-.28-24.01c11.44-3.41 19.46-13.62 20.02-25.14.6-12.32-6.84-23.32-17.33-27.44-11.87-4.67-24.48-1.24-32.22 8.47zm33.27 16.95c0 6.24-5.06 11.31-11.31 11.31s-11.31-5.06-11.31-11.31 5.06-11.31 11.31-11.31 11.31 5.06 11.31 11.31M561.88 945.32l-.02-198.42-16.43 6.55-.02 191.68c-13.17 4.01-21.09 16.35-19.63 29.55 1.36 12.35 10.62 22.77 24.09 24.78 9.59 1.43 19.04-2.82 25.04-10.07 6.09-7.36 7.78-16.86 4.69-26.41-2.46-7.6-8.66-14.54-17.71-17.66zm-8.66 38.09c-6.25 0-11.32-5.07-11.32-11.31s5.07-11.31 11.32-11.31 11.32 5.07 11.32 11.31-5.07 11.31-11.32 11.31" style="fill:url(#linear-gradient)"/></g><g id="Layer_2"><path id="path4" d="M386.45 715.93c-8.6-6.87-15.61-14.11-22.53-22.31-12.55-14.87-17.29-22.85-26.36-40.02-10.68-20.22-17.19-47.81-15.24-70.89h80.2l16.09 10.4 18.69 10.96 96.54 55.94c8.14 4.72 8.82 7.65 9.49 15.09.75 8.35 7.54 14.03 15.92 12.84 3.9-.55 7.21-3.28 8.81-6.02 4.23-7.26-1.62-12.83.66-15.58 1.55-1.86 10.22.57 13.12-10 1.42-5.19.45-11.48-4.32-14.61-5.07-3.32-11.34-1.77-16.53.57-4.28 1.93-8.17 2.39-12.35.04l-46.03-25.91c.52-1.38 1.73-2.68 2.72-2.98 1.19-.35 3.35.31 4.38.88l9.32 5.07 52.08-30.34c5.06-2.95 11.56-1.54 16.5.8 6.66 3.16 13.69 1.4 17.34-5.06 2.17-3.84 2.41-7.98.46-12.04-3.93-8.14-11.49-5.68-12.88-8.87s4.89-9.37-3.07-17.41c-3.52-3.55-8.9-4.93-13.72-3.12s-7.14 5.95-7.95 10.69c-1.57 9.13-2.04 12.02-10.29 16.91-4.05 2.4-7.86 4.69-12.14 6.55 15.84-26.25 11.89-58.49-8.69-79.55-20.8-21.29-53.37-25.53-79.27-10.35l-33.3-.58 57.75-86.13c.36-.53.56-1.32.55-1.67 0-.46-1.05-1.5-1.51-1.48l-5.26.26-55.79-.03.28-47.71.57-20.39 188.58.1-47.48 73.41-12.67 19.99c-.18 1.28.63 2.6 1.94 3.13 12.93 5.16 24.86 11.25 36.38 18.94 7.68 5.13 14.11 10.68 20.76 16.97 13.66 12.92 23.5 25.61 32.15 42.43 9.04 17.57 16.33 31.85 17.17 52.4 3.64.2 6.86.19 10.58-.36l.14-136.57.33-22.09 19.6.07 23.32.28 34.75.37.03 156.73 52.11.43-.03 76.45c.14 1.69-.84 4.27-2.52 4.27l-48.39.13-.33 73.71-.24 41.48c-1.33.61-3.17 1.12-4.56 1.13l-39.05.29-32.3-.16c-1.59 0-3.5-.97-3.5-3.05l-.04-112.12-17.3.05c-3.18 7.6-5.36 14.88-9.24 21.93-7.74 14.06-20.68 32.52-32.12 43.81-14.94 14.74-32.84 25.72-52.01 34.18-10.64 4.69-20.79 8.4-32.21 10.39-13.16 2.3-25.87 4.72-39.38 4.07-10.17-.49-20.27-2.01-30.25-4.3-7.46-1.71-14.34-4.53-21.62-6.9-10.85-3.53-20.67-8.55-30.63-14-5.88-3.22-10.75-7.14-16.19-11.48zm32.27-30.11c4.36 2.55 8.83 2.74 12.92.5 10.5-5.76 2.09-17.5 15.06-25.93 12.86-8.1 24.91-13.54 38.44-22.47l-20.91-12.86-30.47 16.86c-5.08 1.93-10.56 1.55-15.39-.9-6.19-3.13-13.48-1.14-17.11 4.59-3.34 5.27-3.17 14.54 3.2 17.15l7.64 3.12c2.48 1.01 1.12 4.35.44 6.34-1.8 5.22 1.41 10.8 6.19 13.59z" class="st2"/><path id="path5" d="M622.27 460.2c-3.73-.06-11.17-9.69-17.24-13.83l-20.84-14.2-22.55-11.48 59.32-91.14 82.9-.03c.57 0 1.63.39 1.95.67s.19 1.72-.08 2.14l-57.37 88.47-26.08 39.4z" class="st2"/><path id="path6" d="M531.91 550.37c-.53-.67-1.72-2.01-2.13-2.49-1.34-1.56 6.54-3.7 9.65-.93 1.03.91-.65 3.19-1.84 3.67-1.5 9.54-4.56 18.38-11.18 26.03-12.91 14.91-35.05 20.29-53.28 12.49-16.37-7-26.68-21.85-28.58-39-1.43-.54-2.85-3.57-1.39-4.21 4.16-1.83 10.62.11 8.95 2l-2.02 2.28c-.38 4.83 1.67 9.63 3.91 14.11 5.12 10.24 13.39 17.68 24.36 21.88 11.17 4.28 23.38 1.84 33.89-4.12 11.3-6.41 19.12-18.45 19.67-31.71z" class="st2"/><circle id="ellipse6" cx="468.14" cy="524.83" r="12.59" class="st2"/><circle id="ellipse7" cx="514.6" cy="524.59" r="12.57" class="st2"/></g></g><g id="g18" style="clip-rule:evenodd;fill:#67ea94;fill-rule:evenodd;stroke-linejoin:round;stroke-miterlimit:1.5" transform="translate(149.892 396.903)scale(.1685)"><g id="g17" transform="translate(-214.461 -1208.99)scale(2.66667)"><g id="g16" transform="matrix(1.05081 0 0 .60246 5.806 108.651)"><g id="g15"><g id="g1" transform="matrix(.97384 0 0 1.69858 -1.568 -229.112)"><path id="path1" d="m81.582 577.266 66.954-98.462" style="fill:none;stroke:#67ea94;stroke-width:14.11px"/></g><g id="g2" transform="matrix(.96134 0 0 1.67678 882.45 -216.54)"><path id="path2" d="m81.582 577.266 66.954-98.462" style="fill:none;stroke:#67ea94;stroke-width:14.86px"/></g><g id="g7" transform="matrix(12.0448 0 0 21.0595 -7445.39 -7644.88)"><g id="g3" transform="matrix(12 0 0 12 640.988 399.072)"><path id="path3-4" d="M.079 0v-.716h.518v.085H.174v.219H.57v.084H.174v.244h.439V0Z" style="fill-rule:nonzero"/></g><g id="g4" transform="matrix(12 0 0 12 648.992 399.072)"><path id="path4-8" d="m.045-.23.089-.008a.2.2 0 0 0 .03.088.16.16 0 0 0 .072.056.3.3 0 0 0 .11.021.3.3 0 0 0 .095-.016.13.13 0 0 0 .062-.044.1.1 0 0 0 .02-.061.1.1 0 0 0-.019-.059.14.14 0 0 0-.065-.042A1 1 0 0 0 .312-.33a.6.6 0 0 1-.138-.045.2.2 0 0 1-.077-.067.2.2 0 0 1-.025-.089q0-.054.031-.101a.2.2 0 0 1 .09-.072.3.3 0 0 1 .131-.024q.08 0 .141.026a.21.21 0 0 1 .128.188l-.091.007A.14.14 0 0 0 .453-.61Q.411-.645.328-.645q-.086 0-.125.032a.1.1 0 0 0-.039.076.08.08 0 0 0 .027.063.4.4 0 0 0 .143.051q.115.027.159.046a.2.2 0 0 1 .092.073q.03.044.03.102a.2.2 0 0 1-.033.108.2.2 0 0 1-.094.078.4.4 0 0 1-.301 0 .23.23 0 0 1-.103-.085.24.24 0 0 1-.039-.129" style="fill-rule:nonzero"/></g><g id="g5" transform="matrix(12 0 0 12 656.996 399.072)"><path id="path5-3" d="M.08 0v-.716h.095v.294h.372v-.294h.095V0H.547v-.337H.175V0Z" style="fill-rule:nonzero"/></g><g id="g6" transform="matrix(12 0 0 12 665.662 399.072)"><path id="path6-9" d="M.259 0v-.631H.023v-.085h.568v.085H.354V0Z" style="fill-rule:nonzero"/></g></g><g id="g8" transform="matrix(.9773 0 0 1.70462 -43.643 50.53)"><path id="path7" d="m187.032 410.85 63.864-93.658 64.011 93.51" style="fill:none;stroke:#67ea94;stroke-width:13.85px"/></g><g id="g9" transform="matrix(.9773 0 0 1.70462 468.182 53.07)"><path id="path8" d="m187.032 410.85 63.864-93.658 64.011 93.51" style="fill:none;stroke:#67ea94;stroke-width:13.85px"/></g><g id="g12" transform="matrix(.57332 0 0 1 784.482 759.924)"><g id="g10" transform="scale(252.104 252.715)"><path id="path9" d="m.045-.23.089-.008a.2.2 0 0 0 .03.088.16.16 0 0 0 .072.056.3.3 0 0 0 .11.021.3.3 0 0 0 .095-.016.13.13 0 0 0 .062-.044.1.1 0 0 0 .02-.061.1.1 0 0 0-.019-.059.14.14 0 0 0-.065-.042A1 1 0 0 0 .312-.33a.6.6 0 0 1-.138-.045.2.2 0 0 1-.077-.067.2.2 0 0 1-.025-.089q0-.054.031-.101a.2.2 0 0 1 .09-.072.3.3 0 0 1 .131-.024q.08 0 .141.026a.21.21 0 0 1 .128.188l-.091.007A.14.14 0 0 0 .453-.61Q.411-.645.328-.645q-.086 0-.125.032a.1.1 0 0 0-.039.076.08.08 0 0 0 .027.063.4.4 0 0 0 .143.051q.115.027.159.046a.2.2 0 0 1 .092.073q.03.044.03.102a.2.2 0 0 1-.033.108.2.2 0 0 1-.094.078.4.4 0 0 1-.301 0 .23.23 0 0 1-.103-.085.24.24 0 0 1-.039-.129" style="fill-rule:nonzero"/></g><g id="g11" transform="matrix(252.104 0 0 252.715 168.151 0)"><path id="path10" d="M.259 0v-.631H.023v-.085h.568v.085H.354V0Z" style="fill-rule:nonzero"/></g></g><g id="g14" transform="matrix(.57332 0 0 1 1030.51 760.498)"><g id="g13" transform="scale(252.104 252.715)"><path id="path12" d="m.588-.251.095.024a.32.32 0 0 1-.108.178.3.3 0 0 1-.189.061.33.33 0 0 1-.188-.047.3.3 0 0 1-.11-.136.5.5 0 0 1-.038-.192q0-.112.043-.195a.3.3 0 0 1 .121-.127.36.36 0 0 1 .174-.043q.107 0 .18.055A.28.28 0 0 1 .67-.52l-.093.022a.2.2 0 0 0-.072-.113.2.2 0 0 0-.119-.036.23.23 0 0 0-.138.04.2.2 0 0 0-.078.106.44.44 0 0 0 .004.297.2.2 0 0 0 .083.101.23.23 0 0 0 .121.034.2.2 0 0 0 .135-.046.23.23 0 0 0 .075-.136" style="fill-rule:nonzero"/></g></g></g></g></g></g></svg>