<svg xmlns="http://www.w3.org/2000/svg" font-family="monospace" font-size="12" viewBox="0 0 900 700"><path fill="#1e1e2e" d="M0 0h900v700H0z"/><text x="450" y="30" fill="#cdd6f4" font-size="16" font-weight="bold" text-anchor="middle">Raspberry Pi Pico 2 — W5500 + E22-900M30S Wiring</text><text x="450" y="50" fill="#6c7086" font-size="11" text-anchor="middle">env:pico2_w5500_e22  |  SPI0=Ethernet  SPI1=LoRa</text><rect width="280" height="560" x="310" y="70" fill="#313244" stroke="#585b70" stroke-width="1.5" rx="10"/><text x="450" y="92" fill="#cdd6f4" font-size="13" font-weight="bold" text-anchor="middle">Raspberry Pi Pico 2</text><text x="450" y="108" fill="#6c7086" font-size="10" text-anchor="middle">RP2350 · 4 MB Flash</text><text x="380" y="143" fill="#a6e3a1" font-size="11" text-anchor="end">GP0</text><text x="380" y="161" fill="#a6e3a1" font-size="11" text-anchor="end">GP1</text><text x="380" y="179" fill="#f38ba8" font-size="11" font-weight="bold" text-anchor="end">GP2 BUSY</text><text x="380" y="197" fill="#f38ba8" font-size="11" font-weight="bold" text-anchor="end">GP3 RXEN</text><text x="380" y="215" fill="#a6e3a1" font-size="11" text-anchor="end">GP4 SDA</text><text x="380" y="233" fill="#a6e3a1" font-size="11" text-anchor="end">GP5 SCL</text><text x="380" y="251" fill="#a6e3a1" font-size="11" text-anchor="end">GP6 (BTN)</text><text x="380" y="269" fill="#a6e3a1" font-size="11" text-anchor="end">GP7</text><text x="380" y="287" fill="#a6e3a1" font-size="11" text-anchor="end">GP8</text><text x="380" y="305" fill="#a6e3a1" font-size="11" text-anchor="end">GP9</text><text x="380" y="323" fill="#f38ba8" font-size="11" font-weight="bold" text-anchor="end">GP10 SCK</text><text x="380" y="341" fill="#f38ba8" font-size="11" font-weight="bold" text-anchor="end">GP11 MOSI</text><text x="380" y="359" fill="#f38ba8" font-size="11" font-weight="bold" text-anchor="end">GP12 MISO</text><text x="380" y="377" fill="#f38ba8" font-size="11" font-weight="bold" text-anchor="end">GP13 CS</text><text x="380" y="395" fill="#f38ba8" font-size="11" font-weight="bold" text-anchor="end">GP14 IRQ</text><text x="380" y="413" fill="#f38ba8" font-size="11" font-weight="bold" text-anchor="end">GP15 RST</text><text x="380" y="431" fill="#89b4fa" font-size="11" font-weight="bold" text-anchor="end">GP16 MISO</text><text x="380" y="449" fill="#89b4fa" font-size="11" font-weight="bold" text-anchor="end">GP17 CS</text><text x="380" y="467" fill="#89b4fa" font-size="11" font-weight="bold" text-anchor="end">GP18 SCK</text><text x="380" y="485" fill="#89b4fa" font-size="11" font-weight="bold" text-anchor="end">GP19 MOSI</text><text x="380" y="503" fill="#89b4fa" font-size="11" font-weight="bold" text-anchor="end">GP20 RST</text><text x="380" y="521" fill="#6c7086" font-size="11" text-anchor="end">GP21</text><text x="380" y="539" fill="#6c7086" font-size="11" text-anchor="end">GP22</text><text x="520" y="143" fill="#fab387" font-size="11">VBUS</text><text x="520" y="161" fill="#fab387" font-size="11">VSYS</text><text x="520" y="179" fill="#fab387" font-size="11">GND</text><text x="520" y="197" fill="#fab387" font-size="11">3V3_EN</text><text x="520" y="215" fill="#fab387" font-size="11">3V3</text><text x="520" y="233" fill="#fab387" font-size="11">ADC_VREF</text><text x="520" y="251" fill="#6c7086" font-size="11">GP28</text><text x="520" y="269" fill="#a6e3a1" font-size="11">GP27 SCL</text><text x="520" y="287" fill="#a6e3a1" font-size="11">GP26 SDA</text><text x="520" y="305" fill="#fab387" font-size="11">RUN</text><text x="520" y="323" fill="#6c7086" font-size="11">GP22</text><text x="520" y="341" fill="#6c7086" font-size="11">GP21</text><text x="520" y="359" fill="#6c7086" font-size="11">GP20 →</text><g fill="#585b70"><circle cx="390" cy="140" r="4"/><circle cx="390" cy="158" r="4"/><circle cx="390" cy="176" r="4"/><circle cx="390" cy="194" r="4"/><circle cx="390" cy="212" r="4"/><circle cx="390" cy="230" r="4"/><circle cx="390" cy="248" r="4"/><circle cx="390" cy="266" r="4"/><circle cx="390" cy="284" r="4"/><circle cx="390" cy="302" r="4"/><circle cx="390" cy="320" r="4"/><circle cx="390" cy="338" r="4"/><circle cx="390" cy="356" r="4"/><circle cx="390" cy="374" r="4"/><circle cx="390" cy="392" r="4"/><circle cx="390" cy="410" r="4"/><circle cx="390" cy="428" r="4"/><circle cx="390" cy="446" r="4"/><circle cx="390" cy="464" r="4"/><circle cx="390" cy="482" r="4"/><circle cx="390" cy="500" r="4"/><circle cx="390" cy="518" r="4"/><circle cx="390" cy="536" r="4"/></g><g fill="#585b70"><circle cx="510" cy="140" r="4"/><circle cx="510" cy="158" r="4"/><circle cx="510" cy="176" r="4"/><circle cx="510" cy="194" r="4"/><circle cx="510" cy="212" r="4"/><circle cx="510" cy="230" r="4"/><circle cx="510" cy="248" r="4"/><circle cx="510" cy="266" r="4"/><circle cx="510" cy="284" r="4"/><circle cx="510" cy="302" r="4"/></g><rect width="180" height="260" x="660" y="120" fill="#2d2d3f" stroke="#f38ba8" stroke-width="1.5" rx="8"/><text x="750" y="142" fill="#f38ba8" font-weight="bold" text-anchor="middle">E22-900M30S</text><text x="750" y="157" fill="#6c7086" font-size="10" text-anchor="middle">EBYTE SX1262 LoRa</text><text x="672" y="182" fill="#cdd6f4" font-size="10">GND</text><text x="672" y="200" fill="#cdd6f4" font-size="10">VCC  3.3V</text><text x="672" y="218" fill="#f38ba8" font-size="10" font-weight="bold">RXEN</text><text x="672" y="236" fill="#f38ba8" font-size="10" font-weight="bold">TXEN</text><text x="672" y="254" fill="#f38ba8" font-size="10" font-weight="bold">DIO2</text><text x="672" y="272" fill="#f38ba8" font-size="10" font-weight="bold">DIO1</text><text x="672" y="290" fill="#f38ba8" font-size="10" font-weight="bold">BUSY</text><text x="672" y="308" fill="#f38ba8" font-size="10" font-weight="bold">NSS/CS</text><text x="672" y="326" fill="#f38ba8" font-size="10" font-weight="bold">SCK</text><text x="672" y="344" fill="#f38ba8" font-size="10" font-weight="bold">MOSI</text><text x="672" y="362" fill="#f38ba8" font-size="10" font-weight="bold">MISO</text><text x="672" y="380" fill="#f38ba8" font-size="10" font-weight="bold">NRST</text><g fill="#f38ba8"><circle cx="666" cy="179" r="3.5"/><circle cx="666" cy="197" r="3.5"/><circle cx="666" cy="215" r="3.5"/><circle cx="666" cy="233" r="3.5"/><circle cx="666" cy="251" r="3.5"/><circle cx="666" cy="269" r="3.5"/><circle cx="666" cy="287" r="3.5"/><circle cx="666" cy="305" r="3.5"/><circle cx="666" cy="323" r="3.5"/><circle cx="666" cy="341" r="3.5"/><circle cx="666" cy="359" r="3.5"/><circle cx="666" cy="377" r="3.5"/></g><rect width="110" height="16" x="690" y="226" fill="#45475a" stroke="#f38ba8" stroke-dasharray="3,2" rx="3"/><text x="745" y="237" fill="#f9e2af" font-size="9" font-weight="bold" text-anchor="middle">⚠ bridge DIO2→TXEN</text><rect width="180" height="210" x="660" y="410" fill="#2d2d3f" stroke="#89b4fa" stroke-width="1.5" rx="8"/><text x="750" y="432" fill="#89b4fa" font-weight="bold" text-anchor="middle">W5500 module</text><text x="750" y="447" fill="#6c7086" font-size="10" text-anchor="middle">SPI0 Ethernet</text><text x="672" y="470" fill="#cdd6f4" font-size="10">GND</text><text x="672" y="488" fill="#cdd6f4" font-size="10">3.3V</text><text x="672" y="506" fill="#89b4fa" font-size="10" font-weight="bold">MISO</text><text x="672" y="524" fill="#89b4fa" font-size="10" font-weight="bold">MOSI</text><text x="672" y="542" fill="#89b4fa" font-size="10" font-weight="bold">SCLK</text><text x="672" y="560" fill="#89b4fa" font-size="10" font-weight="bold">SCS/CS</text><text x="672" y="578" fill="#89b4fa" font-size="10" font-weight="bold">RST</text><text x="672" y="596" fill="#6c7086" font-size="10">INT (nc)</text><g fill="#89b4fa"><circle cx="666" cy="467" r="3.5"/><circle cx="666" cy="485" r="3.5"/><circle cx="666" cy="503" r="3.5"/><circle cx="666" cy="521" r="3.5"/><circle cx="666" cy="539" r="3.5"/><circle cx="666" cy="557" r="3.5"/><circle cx="666" cy="575" r="3.5"/><circle cx="666" cy="593" r="3.5"/></g><path fill="none" stroke="#f38ba8" stroke-width="1.5" d="M390 176h220v111h56"/><path fill="none" stroke="#f38ba8" stroke-width="1.5" d="M390 194h230v21h46M390 320h240v3h36M390 338h245v3h31M390 356h250v3h26"/><path fill="none" stroke="#f38ba8" stroke-width="1.5" d="M390 374h255v-69h21"/><path fill="none" stroke="#f38ba8" stroke-width="1.5" d="M390 392h260V269h16"/><path fill="none" stroke="#f38ba8" stroke-width="1.5" d="M390 410h265v-33h11"/><path fill="none" stroke="#89b4fa" stroke-width="1.5" d="M390 428h210v75h66"/><path fill="none" stroke="#89b4fa" stroke-width="1.5" d="M390 446h205v111h71"/><path fill="none" stroke="#89b4fa" stroke-width="1.5" d="M390 464h200v75h76"/><path fill="none" stroke="#89b4fa" stroke-width="1.5" d="M390 482h195v39h81"/><path fill="none" stroke="#89b4fa" stroke-width="1.5" d="M390 500h190v75h86"/><rect width="275" height="185" x="20" y="120" fill="#313244" stroke="#585b70" rx="6"/><text x="157" y="140" fill="#cdd6f4" font-weight="bold" text-anchor="middle">Conexiones</text><path fill="#f38ba8" d="M30 148h8v8h-8z"/><text x="45" y="157" fill="#f38ba8" font-size="11" font-weight="bold">SPI1 — LoRa (E22-900M30S)</text><text x="35" y="172" fill="#cdd6f4" font-size="10">GP2  → BUSY     GP10 → SCK</text><text x="35" y="186" fill="#cdd6f4" font-size="10">GP3  → RXEN    GP11 → MOSI</text><text x="35" y="200" fill="#cdd6f4" font-size="10">GP13 → CS       GP12 → MISO</text><text x="35" y="214" fill="#cdd6f4" font-size="10">GP14 → DIO1     GP15 → RST</text><path fill="#89b4fa" d="M30 226h8v8h-8z"/><text x="45" y="235" fill="#89b4fa" font-size="11" font-weight="bold">SPI0 — Ethernet (W5500)</text><text x="35" y="250" fill="#cdd6f4" font-size="10">GP16 → MISO    GP18 → SCK</text><text x="35" y="264" fill="#cdd6f4" font-size="10">GP17 → CS       GP19 → MOSI</text><text x="35" y="278" fill="#cdd6f4" font-size="10">GP20 → RST</text><text x="35" y="295" fill="#f9e2af" font-size="10">⚠ Bridge DIO2→TXEN en módulo E22</text><rect width="275" height="80" x="20" y="320" fill="#313244" stroke="#585b70" rx="6"/><text x="157" y="338" fill="#cdd6f4" font-weight="bold" text-anchor="middle">Alimentación</text><text x="30" y="355" fill="#fab387" font-size="10">Pico 2 VBUS  →  USB 5V</text><text x="30" y="370" fill="#fab387" font-size="10">Pico 2 3V3   →  VCC E22 + VCC W5500</text><text x="30" y="385" fill="#fab387" font-size="10">GND común entre los 3 módulos</text><text x="30" y="392" fill="#6c7086" font-size="9">E22 consume hasta 1 A en TX — usar cap 100µF</text><rect width="275" height="50" x="20" y="415" fill="#313244" stroke="#585b70" rx="6"/><text x="30" y="433" fill="#a6e3a1" font-size="11" font-weight="bold">Build:</text><text x="30" y="450" fill="#cdd6f4" font-size="10">pio run -e pico2_w5500_e22</text><rect width="275" height="35" x="20" y="480" fill="#313244" stroke="#585b70" rx="6"/><text x="30" y="497" fill="#cdd6f4" font-size="10">board = rpipico2  →  4 MB flash</text><text x="30" y="511" fill="#6c7086" font-size="9">(W5500-EVB-Pico2 solo tiene 2 MB)</text></svg>