#ifndef USERPREFS_HAS_SPLASH
/*
static uint8_t icon_bits[] = {
  0x00, 0x00, 0x00, 0x00, 0x00, 0x00, 0x00, 0x00, 0x80, 0x03, 0x00, 0x03, 
  0x00, 0x00, 0x00, 0x80, 0x07, 0xC0, 0x07, 0x00, 0x00, 0x00, 0xC0, 0x1F, 
  0xC0, 0x0F, 0x00, 0x00, 0x00, 0xE0, 0x0F, 0xE0, 0x0F, 0x00, 0x00, 0x00, 
  0xE0, 0x0F, 0xF0, 0x1F, 0x00, 0x00, 0x00, 0xF0, 0x07, 0xF0, 0x3F, 0x00, 
  0x00, 0x00, 0xF8, 0x03, 0xF8, 0x7F, 0x00, 0x00, 0x00, 0xF8, 0x03, 0xFC, 
  0x7F, 0x00, 0x00, 0x00, 0xFC, 0x01, 0xFC, 0xFE, 0x00, 0x00, 0x00, 0xFE, 
  0x00, 0xFE, 0xFC, 0x01, 0x00, 0x00, 0xFE, 0x00, 0x7F, 0xFC, 0x01, 0x00, 
  0x00, 0x7F, 0x00, 0x3F, 0xF8, 0x03, 0x00, 0x80, 0x3F, 0x80, 0x3F, 0xF0, 
  0x07, 0x00, 0x80, 0x3F, 0xC0, 0x1F, 0xF0, 0x07, 0x00, 0xC0, 0x1F, 0xC0, 
  0x0F, 0xE0, 0x0F, 0x00, 0xE0, 0x0F, 0xE0, 0x0F, 0xC0, 0x1F, 0x00, 0xE0, 
  0x0F, 0xF0, 0x07, 0x80, 0x1F, 0x00, 0xF0, 0x07, 0xF8, 0x03, 0x80, 0x3F, 
  0x00, 0xF8, 0x03, 0xF8, 0x03, 0x00, 0x7F, 0x00, 0xFC, 0x03, 0xFC, 0x01, 
  0x00, 0x7E, 0x00, 0xFC, 0x01, 0xFE, 0x00, 0x00, 0xFE, 0x00, 0xFE, 0x00, 
  0xFE, 0x00, 0x00, 0xFC, 0x01, 0x7E, 0x00, 0x7F, 0x00, 0x00, 0xF8, 0x01, 
  0x7E, 0x00, 0x3E, 0x00, 0x00, 0xF8, 0x01, 0x38, 0x00, 0x3C, 0x00, 0x00, 
  0x70, 0x00, 0x10, 0x00, 0x10, 0x00, 0x00, 0x20, 0x00, 0x00, 0x00, 0x00, 
  0x00, 0x00, 0x00, 0x00, };
*/
#if defined(GAT562)
#define icon_width 40
#define icon_height 40
static uint8_t icon_bits[] = {
  0x00, 0x00, 0x00, 0x00, 0x00, 0x80, 0x01, 0x00, 0x00, 0x00, 0x80, 0x1f, 
  0x00, 0x00, 0x00, 0x00, 0x78, 0x00, 0x00, 0x00, 0x00, 0xe0, 0x00, 0x00, 
  0x00, 0x80, 0x87, 0x01, 0x00, 0x00, 0x00, 0x1e, 0x03, 0x00, 0x00, 0x00, 
  0x70, 0x06, 0x00, 0x00, 0x80, 0xe1, 0x0c, 0x00, 0x00, 0x80, 0xcf, 0x18, 
  0x00, 0x00, 0x00, 0x9c, 0x19, 0x00, 0x00, 0x00, 0x30, 0x13, 0x00, 0x00, 
  0x00, 0x20, 0x33, 0x00, 0x00, 0x80, 0x63, 0x22, 0x00, 0x00, 0x80, 0x47, 
  0x26, 0x00, 0x00, 0x80, 0x43, 0x26, 0xff, 0xff, 0x00, 0x01, 0x00, 0x03, 
  0x81, 0x00, 0x00, 0x00, 0x00, 0x01, 0x00, 0x00, 0x00, 0x00, 0x01, 0x00, 
  0x01, 0x7e, 0x00, 0x01, 0x00, 0x01, 0xff, 0x01, 0x01, 0x00, 0x81, 0xff, 
  0x03, 0x01, 0x00, 0xc1, 0xff, 0x03, 0x01, 0x00, 0xc1, 0xc3, 0x07, 0x01, 
  0x00, 0xe1, 0x83, 0x07, 0x01, 0x00, 0xe1, 0x01, 0x07, 0x01, 0x00, 0xe1, 
  0x01, 0x07, 0x01, 0x00, 0xc1, 0x83, 0x07, 0x01, 0x00, 0xc1, 0xc7, 0x03, 
  0x01, 0x00, 0x81, 0xff, 0x03, 0x01, 0x00, 0x81, 0xff, 0x01, 0x01, 0x00, 
  0x01, 0xff, 0x00, 0x01, 0x00, 0x00, 0xfe, 0x00, 0x01, 0x00, 0x00, 0x7e, 
  0x00, 0x01, 0x00, 0x00, 0x7c, 0x00, 0x01, 0x80, 0x01, 0x38, 0x00, 0x01, 
  0x80, 0x01, 0x10, 0x00, 0x01, 0xc0, 0x00, 0x10, 0x00, 0x01, 0x72, 0x00, 
  0x00, 0x00, 0x01, 0x3e, 0x00, 0x00, 0x00, 0x01
};
#elif defined(TINYLORA)
#define icon_width 60
#define icon_height 40
static uint8_t icon_bits[] = {
  0x00, 0x00, 0x00, 0x00, 0x00, 0x00, 0x00, 0x00, 0x00, 0x00, 0x00, 0x00, 
  0x00, 0x00, 0x00, 0x00, 0x00, 0x00, 0x00, 0x00, 0x00, 0x00, 0x00, 0x00, 
  0x00, 0x00, 0x00, 0x00, 0x00, 0x00, 0x00, 0x00, 0x00, 0x00, 0x00, 0x00, 
  0x00, 0x00, 0x00, 0x00, 0x00, 0x00, 0x00, 0x00, 0x00, 0x00, 0x00, 0x00, 
  0x00, 0x00, 0x00, 0x00, 0x00, 0x00, 0x00, 0x00, 0x00, 0x00, 0x00, 0x00, 
  0x00, 0x00, 0x00, 0x00, 0x00, 0x00, 0x00, 0x00, 0x00, 0x00, 0x00, 0x00, 
  0x00, 0x00, 0x00, 0x00, 0xF0, 0x0F, 0x00, 0x00, 0x00, 0x00, 0x00, 0x00, 
  0xFE, 0x7F, 0x00, 0x00, 0x00, 0x00, 0x00, 0x00, 0x3F, 0xFC, 0x00, 0x00, 
  0x00, 0x00, 0x00, 0x00, 0x06, 0xE0, 0x00, 0x00, 0x00, 0x00, 0x00, 0x00, 
  0x00, 0x00, 0x00, 0x00, 0x00, 0x03, 0x00, 0x00, 0x00, 0x00, 0x00, 0x00, 
  0x7F, 0x03, 0x00, 0x00, 0xE0, 0x07, 0x00, 0x00, 0x7F, 0x00, 0x00, 0x00, 
  0xF8, 0x1F, 0x00, 0x00, 0x0C, 0x00, 0x01, 0x80, 0x38, 0xDC, 0x03, 0x00, 
  0x0C, 0xF3, 0x37, 0xCE, 0x00, 0xE0, 0x07, 0x00, 0x0C, 0x73, 0x66, 0xC6, 
  0x00, 0x60, 0x8C, 0x03, 0x0C, 0x33, 0x66, 0xC6, 0xC0, 0x63, 0x8C, 0x07, 
  0x0C, 0x33, 0xE6, 0xC7, 0xE0, 0x67, 0x0C, 0x0C, 0x0C, 0x33, 0xC6, 0xC3, 
  0xF0, 0xEF, 0x07, 0x0F, 0x0C, 0x33, 0xC6, 0xC3, 0xF0, 0xEF, 0xE7, 0x0F, 
  0x0C, 0x33, 0x06, 0xC3, 0xE0, 0x67, 0x66, 0x0C, 0x00, 0x00, 0x80, 0xC1, 
  0xEF, 0x67, 0x6C, 0x0F, 0x00, 0x00, 0xE0, 0xC1, 0xCF, 0x63, 0xCC, 0x0F, 
  0x00, 0x00, 0xE0, 0x00, 0x00, 0x00, 0x00, 0x00, 0x00, 0x00, 0x00, 0x00, 
  0x00, 0x00, 0x00, 0x00, 0x00, 0x00, 0x00, 0x00, 0x00, 0x00, 0x00, 0x00, 
  0x00, 0x00, 0x00, 0x00, 0x00, 0x00, 0x00, 0x00, 0x00, 0x00, 0x00, 0x00, 
  0x00, 0x00, 0x00, 0x00, 0x00, 0x00, 0x00, 0x00, 0x00, 0x00, 0x00, 0x00, 
  0x00, 0x00, 0x00, 0x00, 0x00, 0x00, 0x00, 0x00, 0x00, 0x00, 0x00, 0x00, 
  0x00, 0x00, 0x00, 0x00, 0x00, 0x00, 0x00, 0x00, 0x00, 0x00, 0x00, 0x00, 
  0x00, 0x00, 0x00, 0x00, 0x00, 0x00, 0x00, 0x00, 0x00, 0x00, 0x00, 0x00, 
  0x00, 0x00, 0x00, 0x00, 0x00, 0x00, 0x00, 0x00, 0x00, 0x00, 0x00, 0x00, 
  0x00, 0x00, 0x00, 0x00, 0x00, 0x00, 0x00, 0x00 };
#else
#define icon_width 60
#define icon_height 60
static uint8_t icon_bits[] = {
  0x00, 0x00, 0x00, 0x00, 0x00, 0x00, 0x00, 0x00, 0x00, 0x00, 0x00, 0x00, 
  0x00, 0x00, 0x00, 0x00, 0x00, 0x00, 0x00, 0x00, 0x00, 0x00, 0x00, 0x00, 
  0x00, 0x00, 0x00, 0x00, 0x00, 0x00, 0x00, 0x00, 0x00, 0x00, 0x00, 0x00, 
  0x00, 0x00, 0x00, 0x00, 0x00, 0x00, 0x00, 0x00, 0x00, 0x00, 0x00, 0x00, 
  0x00, 0x00, 0x00, 0x00, 0x00, 0x00, 0x00, 0x00, 0x00, 0x00, 0x00, 0x00, 
  0x00, 0x00, 0x00, 0x00, 0x00, 0x00, 0x00, 0xc0, 0x7f, 0x00, 0x00, 0x00, 
  0x00, 0x00, 0x00, 0xf0, 0xff, 0x01, 0x00, 0x00, 0x00, 0x00, 0x00, 0xfc, 
  0xff, 0x07, 0x00, 0x00, 0x00, 0x00, 0x00, 0xfe, 0xff, 0x0f, 0x00, 0x00, 
  0x00, 0x00, 0x00, 0xff, 0xff, 0x1f, 0x00, 0x00, 0x00, 0x00, 0xbc, 0xff, 
  0xff, 0x3f, 0x00, 0x00, 0x00, 0x00, 0xff, 0xff, 0xff, 0x3f, 0x00, 0x00, 
  0x00, 0xc0, 0xff, 0xff, 0xff, 0x7f, 0x00, 0x00, 0x00, 0xe0, 0xff, 0xff, 
  0xff, 0xff, 0x00, 0x00, 0x00, 0xe0, 0xff, 0xff, 0xff, 0xff, 0x00, 0x00, 
  0x00, 0xf0, 0xff, 0xff, 0xff, 0xff, 0x00, 0x00, 0x00, 0xf0, 0xff, 0xff, 
  0xff, 0xff, 0x01, 0x00, 0x00, 0xf8, 0xff, 0xff, 0xff, 0xff, 0x01, 0x00, 
  0x00, 0xf8, 0xff, 0xff, 0xff, 0xff, 0x01, 0x00, 0x00, 0xf8, 0xff, 0xff, 
  0xff, 0xff, 0x07, 0x00, 0x00, 0xfe, 0xff, 0xff, 0xff, 0xff, 0x1f, 0x00, 
  0x80, 0xff, 0xff, 0xff, 0xff, 0xff, 0x3f, 0x00, 0xc0, 0xff, 0xff, 0xff, 
  0xff, 0xff, 0x7f, 0x00, 0xe0, 0xff, 0xff, 0xff, 0xff, 0xff, 0xff, 0x00, 
  0xf0, 0xff, 0xff, 0xff, 0xff, 0xff, 0xff, 0x01, 0xf8, 0xff, 0xff, 0xff, 
  0xff, 0xff, 0xff, 0x03, 0xf8, 0xff, 0xff, 0xff, 0xff, 0xff, 0xff, 0x03, 
  0xfc, 0xff, 0xff, 0xff, 0xff, 0xff, 0xff, 0x07, 0xfc, 0xff, 0xff, 0xff, 
  0xff, 0xff, 0xff, 0x07, 0xfc, 0xff, 0xff, 0xff, 0xff, 0xff, 0xff, 0x07, 
  0xfc, 0xff, 0xff, 0xff, 0xff, 0xff, 0xff, 0x07, 0xfc, 0xff, 0xff, 0xff, 
  0xff, 0xff, 0xff, 0x07, 0xfc, 0xff, 0xff, 0xff, 0xff, 0xff, 0xff, 0x0f, 
  0xfc, 0xff, 0xff, 0xff, 0xff, 0xff, 0xff, 0x0f, 0xfc, 0xff, 0xff, 0xff, 
  0xff, 0xff, 0xff, 0x07, 0xfc, 0xff, 0xff, 0xff, 0xff, 0xff, 0xff, 0x07, 
  0xfc, 0xff, 0xff, 0xff, 0xff, 0xff, 0xff, 0x07, 0xfc, 0xff, 0xff, 0xff, 
  0xff, 0xff, 0xff, 0x07, 0xf8, 0xff, 0xff, 0xff, 0xff, 0xff, 0xff, 0x03, 
  0xf8, 0xff, 0xff, 0xff, 0xff, 0xff, 0xff, 0x03, 0xf0, 0xff, 0xff, 0xff, 
  0xff, 0xff, 0xff, 0x01, 0xf0, 0xff, 0xff, 0xff, 0xff, 0xff, 0xff, 0x00, 
  0xe0, 0xff, 0xff, 0xff, 0xff, 0xff, 0xff, 0x00, 0xc0, 0xff, 0xff, 0xff, 
  0xff, 0xff, 0x7f, 0x00, 0x80, 0xff, 0xff, 0xff, 0xff, 0xff, 0x1f, 0x00, 
  0x00, 0xfe, 0xff, 0xff, 0xff, 0xff, 0x0f, 0x00, 0x00, 0xf0, 0xff, 0xff, 
  0xff, 0xff, 0x01, 0x00, 0x00, 0x00, 0x00, 0x00, 0x00, 0x00, 0x00, 0x00, 
  0x00, 0x00, 0x00, 0x00, 0x00, 0x00, 0x00, 0x00, 0x00, 0x00, 0x00, 0x00, 
  0x00, 0x00, 0x00, 0x00, 0x00, 0x00, 0x00, 0x00, 0x00, 0x00, 0x00, 0x00, 
  0x00, 0x00, 0x00, 0x00, 0x00, 0x00, 0x00, 0x00, 0x00, 0x00, 0x00, 0x00, 
  0x00, 0x00, 0x00, 0x00, 0x00, 0x00, 0x00, 0x00, 0x00, 0x00, 0x00, 0x00, 
  0x00, 0x00, 0x00, 0x00, 0x00, 0x00, 0x00, 0x00, 0x00, 0x00, 0x00, 0x00, 
  0x00, 0x00, 0x00, 0x00, 0x00, 0x00, 0x00, 0x00, 0x00, 0x00, 0x00, 0x00
};
#endif
#endif