#define icon_width 50
#define icon_height 28
static unsigned char icon_bits[] = {
  0x00, 0x00, 0x00, 0x00, 0x18, 0x00, 0x00, 0x80, 0xFF, 0xFF, 0x01, 0x78, 
  0x00, 0x00, 0x60, 0x00, 0x00, 0xFE, 0x49, 0x00, 0x00, 0x30, 0x00, 0x00, 
  0x00, 0x8F, 0x00, 0x00, 0x18, 0x00, 0x00, 0x00, 0xA8, 0x03, 0x00, 0x0C, 
  0x00, 0x00, 0x00, 0xA8, 0x06, 0x00, 0x04, 0x00, 0x00, 0x00, 0x00, 0x0C, 
  0x00, 0x02, 0x00, 0x00, 0x00, 0x00, 0x18, 0x00, 0x02, 0x00, 0x00, 0x00, 
  0x00, 0x10, 0x00, 0x02, 0x00, 0x00, 0x00, 0x04, 0x30, 0x00, 0x02, 0x00, 
  0x00, 0x00, 0x04, 0x64, 0x00, 0x02, 0x00, 0x00, 0x00, 0x04, 0x40, 0x00, 
  0x02, 0x00, 0x00, 0x02, 0x08, 0x40, 0x00, 0x02, 0x04, 0x00, 0x01, 0x38, 
  0x40, 0x00, 0x02, 0x04, 0x00, 0x01, 0x68, 0x20, 0x00, 0x02, 0x04, 0x00, 
  0x01, 0xC4, 0x31, 0x00, 0x02, 0x06, 0x00, 0x00, 0x06, 0x0E, 0x00, 0x04, 
  0x02, 0x00, 0x00, 0x02, 0x00, 0x00, 0x04, 0x03, 0x00, 0x02, 0x03, 0x00, 
  0x00, 0x84, 0x0D, 0x00, 0x02, 0x01, 0x00, 0x00, 0x84, 0x30, 0xE0, 0x03, 
  0x01, 0x00, 0x00, 0xC2, 0xE0, 0x1F, 0x87, 0x00, 0x00, 0x00, 0x42, 0x00, 
  0x00, 0x84, 0x00, 0x00, 0x00, 0x22, 0x00, 0x00, 0x8C, 0x00, 0x00, 0x00, 
  0x62, 0x00, 0x00, 0x88, 0x01, 0x00, 0x00, 0x42, 0x00, 0x00, 0x08, 0x01, 
  0x00, 0x00, 0x7E, 0x00, 0x00, 0xF8, 0x01, 0x00, 0x00, 0x00, 0x00, 0x00, 
  0x00, 0x00, 0x00, 0x00, };

